<?xml version="1.0" encoding="UTF-8"?>
<svg version="1.1" xmlns="http://www.w3.org/2000/svg" width="500" height="500">
<path d="M0 0 C165 0 330 0 500 0 C500 165 500 330 500 500 C335 500 170 500 0 500 C0 335 0 170 0 0 Z " fill="#FEFEFE" transform="translate(0,0)"/>
<path d="M0 0 C2.54475501 2.54475501 3.54930223 5.38736064 4.87890625 8.6640625 C5.30468964 9.69516647 5.30468964 9.69516647 5.73907471 10.74710083 C6.35806682 12.24716185 6.97486406 13.74812999 7.5897522 15.24987793 C9.26284166 19.33499815 10.95255987 23.41323812 12.640625 27.4921875 C12.99425613 28.34776245 13.34788727 29.2033374 13.7122345 30.08483887 C17.67901458 39.66825781 21.74445157 49.20924374 25.8125 58.75 C30.54631934 69.86434615 35.27818553 80.9791545 39.9375 92.125 C40.33235596 93.06569336 40.72721191 94.00638672 41.1340332 94.97558594 C41.49070068 95.8318457 41.84736816 96.68810547 42.21484375 97.5703125 C42.51511475 98.28977051 42.81538574 99.00922852 43.12475586 99.75048828 C44.18068031 102.46437611 45.07912196 105.23736589 46 108 C36.1 108 26.2 108 16 108 C10.67312954 96.79137674 5.75086189 85.46376804 1 74 C-1.29813273 76.84425211 -2.77899414 79.52622456 -4.12109375 82.921875 C-4.49943359 83.86546875 -4.87777344 84.8090625 -5.26757812 85.78125 C-5.65365234 86.7609375 -6.03972656 87.740625 -6.4375 88.75 C-7.20393021 90.68352377 -7.97341698 92.615839 -8.74609375 94.546875 C-9.25160767 95.82836426 -9.25160767 95.82836426 -9.76733398 97.13574219 C-11.35630396 100.82791802 -13.20239115 104.40478229 -15 108 C-24.9 108 -34.8 108 -45 108 C-51.72222222 94.55555556 -51.72222222 94.55555556 -53.75 89 C-55.01710956 85.55346199 -56.32949258 82.26754749 -58 79 C-59.60757525 82.66518139 -61.21043485 86.33240717 -62.8125 90 C-63.26431641 91.02996094 -63.71613281 92.05992187 -64.18164062 93.12109375 C-66.13978727 97.60910869 -68.06196634 102.07145795 -69.69921875 106.6875 C-71 110 -71 110 -73 111 C-74.41876289 107.70923306 -75.83461176 104.41721966 -77.25 101.125 C-77.64574219 100.2071875 -78.04148437 99.289375 -78.44921875 98.34375 C-79.64229675 95.56642088 -80.82410773 92.78464638 -82 90 C-82.38091797 89.1037793 -82.76183594 88.20755859 -83.15429688 87.28417969 C-87.91509764 75.80402089 -87.91509764 75.80402089 -85.3671875 69.47265625 C-84.55058548 67.66283 -83.71870563 65.85985103 -82.875 64.0625 C-81.94937678 62.01673001 -81.02634213 59.96978745 -80.10546875 57.921875 C-79.6057959 56.81779297 -79.10612305 55.71371094 -78.59130859 54.57617188 C-75.68052326 48.03471997 -72.9423132 41.42076859 -70.1875 34.8125 C-69.64390523 33.51237264 -69.10012647 32.2123222 -68.55615234 30.91235352 C-68.29382813 30.28493759 -68.03150391 29.65752167 -67.76123047 29.01109314 C-66.99574619 27.18105493 -66.22908618 25.35150865 -65.46240234 23.52197266 C-64.48502278 21.16810327 -63.52184329 18.80828887 -62.57275391 16.44287109 C-62.13237793 15.35184082 -61.69200195 14.26081055 -61.23828125 13.13671875 C-60.85325439 12.16822998 -60.46822754 11.19974121 -60.0715332 10.2019043 C-59 8 -59 8 -57 7 C-40.09233961 46.6268741 -40.09233961 46.6268741 -34.4375 60.375 C-34.07470947 61.2510791 -33.71191895 62.1271582 -33.33813477 63.02978516 C-31 68.75676912 -31 68.75676912 -31 71 C-30.34 71 -29.68 71 -29 71 C-28.773125 70.0925 -28.54625 69.185 -28.3125 68.25 C-25.47751202 58.36016351 -20.68591792 48.93459933 -16.57919312 39.52593994 C-10.86479712 26.42558564 -5.32682133 13.26355433 0 0 Z " fill="#A40708" transform="translate(159,166)"/>
<path d="M0 0 C2.02952749 2.02952749 2.6858734 3.29910744 3.76831055 5.90454102 C4.10593918 6.71041153 4.44356781 7.51628204 4.79142761 8.34657288 C5.15287369 9.22349289 5.51431976 10.1004129 5.88671875 11.00390625 C6.26681595 11.91518784 6.64691315 12.82646942 7.03852844 13.7653656 C8.25949447 16.695837 9.47354561 19.62911805 10.6875 22.5625 C11.48588234 24.48130534 12.28470581 26.39992719 13.08398438 28.31835938 C15.02768232 32.98702064 16.96230817 37.65937965 18.89447021 42.33282471 C19.97195326 44.93233509 21.05650254 47.5287859 22.14306641 50.12451172 C22.78942029 51.67544228 23.43574374 53.22638553 24.08203125 54.77734375 C24.38002121 55.48492325 24.67801117 56.19250275 24.98503113 56.92152405 C27 61.7737565 27 61.7737565 27 64 C27.66 64 28.32 64 29 64 C29.495 63.01 29.495 63.01 30 62 C30 63.32 30 64.64 30 66 C29.01 66.495 29.01 66.495 28 67 C26.97549761 69.18137797 26.97549761 69.18137797 26 72 C25.773125 72.59167969 25.54625 73.18335938 25.3125 73.79296875 C23.97920867 77.2720258 22.77151161 80.74801478 21.6875 84.3125 C19.86469544 89.91811402 16.93764054 94.91379388 14 100 C8.13939287 94.53672216 5.87669971 86.28641579 3.1484375 78.953125 C2.21021906 76.54056329 1.17572873 74.29950522 0 72 C-1.60757525 75.66518139 -3.21043485 79.33240717 -4.8125 83 C-5.26431641 84.02996094 -5.71613281 85.05992187 -6.18164062 86.12109375 C-8.13978727 90.60910869 -10.06196634 95.07145795 -11.69921875 99.6875 C-13 103 -13 103 -15 104 C-16.41876289 100.70923306 -17.83461176 97.41721966 -19.25 94.125 C-19.64574219 93.2071875 -20.04148437 92.289375 -20.44921875 91.34375 C-21.64229675 88.56642088 -22.82410773 85.78464638 -24 83 C-24.38091797 82.1037793 -24.76183594 81.20755859 -25.15429688 80.28417969 C-29.91509764 68.80402089 -29.91509764 68.80402089 -27.3671875 62.47265625 C-26.55058548 60.66283 -25.71870563 58.85985103 -24.875 57.0625 C-23.94937678 55.01673001 -23.02634213 52.96978745 -22.10546875 50.921875 C-21.6057959 49.81779297 -21.10612305 48.71371094 -20.59130859 47.57617188 C-17.68052326 41.03471997 -14.9423132 34.42076859 -12.1875 27.8125 C-11.64390523 26.51237264 -11.10012647 25.2123222 -10.55615234 23.91235352 C-7.53223717 16.68369395 -7.53223717 16.68369395 -4.53759766 9.44287109 C-4.08819824 8.35184082 -3.63879883 7.26081055 -3.17578125 6.13671875 C-2.77915283 5.16822998 -2.38252441 4.19974121 -1.97387695 3.2019043 C-1 1 -1 1 0 0 Z " fill="#A40808" transform="translate(101,173)"/>
<path d="M0 0 C6.435 -0.1546875 6.435 -0.1546875 13 -0.3125 C14.33675781 -0.35802002 15.67351562 -0.40354004 17.05078125 -0.45043945 C24.17834271 -0.53313197 29.6882299 -0.13446484 35 5 C37.30158168 9.31546565 37.88210776 14.17541061 37 19 C35.34042309 22.89520531 33.61187968 26.07553959 29.875 28.21875 C25.9363676 29.28903054 22.2468366 29.21346836 18.1875 29.125 C17.00510742 29.11146484 17.00510742 29.11146484 15.79882812 29.09765625 C13.86575334 29.07422504 11.9328362 29.03835838 10 29 C10 33.95 10 38.9 10 44 C6.7 44 3.4 44 0 44 C0 29.48 0 14.96 0 0 Z " fill="#A10F10" transform="translate(256,229)"/>
<path d="M0 0 C5.28 0 10.56 0 16 0 C18.3125 7.5 18.3125 7.5 19.02075195 9.81054688 C20.95148632 16.0283548 23.25242359 22.07303325 25.60546875 28.140625 C26.1328125 29.51041667 26.66015625 30.88020833 27.1875 32.25 C27.46013672 32.94351563 27.73277344 33.63703125 28.01367188 34.3515625 C29.34046478 37.82317099 30 40.23164316 30 44 C27.03 44 24.06 44 21 44 C20.01 41.03 19.02 38.06 18 35 C11.4 35 4.8 35 -2 35 C-2.99 37.97 -3.98 40.94 -5 44 C-8.3 44 -11.6 44 -15 44 C-14.23300122 41.33217817 -13.46151007 38.66578825 -12.6875 36 C-12.47416016 35.25621094 -12.26082031 34.51242187 -12.04101562 33.74609375 C-10.58020781 28.73138036 -8.87445207 23.87277993 -7 19 C-6.38934594 17.3551226 -5.78139632 15.70923933 -5.17578125 14.0625 C-4.86962891 13.23105469 -4.56347656 12.39960938 -4.24804688 11.54296875 C-3.93931641 10.70378906 -3.63058594 9.86460937 -3.3125 9 C-2.99216797 8.12988281 -2.67183594 7.25976562 -2.34179688 6.36328125 C-1.5609837 4.24226635 -0.78046139 2.12114437 0 0 Z " fill="#A20A0B" transform="translate(222,229)"/>
<path d="M0 0 C5.28 0 10.56 0 16 0 C16.59167969 1.78664062 17.18335938 3.57328125 17.79296875 5.4140625 C18.59079269 7.81782557 19.38899385 10.22146347 20.1875 12.625 C20.59734131 13.85927734 21.00718262 15.09355469 21.42944336 16.36523438 C23.91370277 23.82046887 26.46328993 31.23543981 29.22265625 38.59375 C30 41 30 41 30 44 C26.7 44 23.4 44 20 44 C19.34 41.03 18.68 38.06 18 35 C11.07 35 4.14 35 -3 35 C-3.33 36.98 -3.66 38.96 -4 41 C-4.33 41.99 -4.66 42.98 -5 44 C-8.3 44 -11.6 44 -15 44 C-14.22370863 39.0398006 -12.49446753 34.45825186 -10.8125 29.75 C-10.50296387 28.87553223 -10.19342773 28.00106445 -9.87451172 27.10009766 C-9.2345227 25.29251255 -8.59323715 23.485386 -7.95068359 21.67871094 C-7.04027551 19.11348302 -6.1376276 16.54568674 -5.23828125 13.9765625 C-4.70053935 12.44270184 -4.16277982 10.90884736 -3.625 9.375 C-3.37468018 8.65924805 -3.12436035 7.94349609 -2.86645508 7.20605469 C-1.11366897 2.22733793 -1.11366897 2.22733793 0 0 Z " fill="#9A0F10" transform="translate(310,229)"/>
<path d="M0 0 C5.28 0 10.56 0 16 0 C16.42539062 1.13566406 16.85078125 2.27132812 17.2890625 3.44140625 C18.40153126 6.41038062 19.52256384 9.37593138 20.6484375 12.33984375 C24.58198024 22.77552024 28.01456111 33.25517154 31 44 C27.7 44 24.4 44 21 44 C19.50178941 40.62902617 19 38.79557881 19 35 C12.07 35 5.14 35 -2 35 C-2.66 37.97 -3.32 40.94 -4 44 C-7.3 44 -10.6 44 -14 44 C-13.44280698 39.0697216 -12.37869176 34.86720644 -10.56640625 30.25390625 C-10.32840805 29.63909897 -10.09040985 29.02429169 -9.84519958 28.39085388 C-9.0912667 26.44526791 -8.32778095 24.50364734 -7.5625 22.5625 C-3.15004283 11.48329469 -3.15004283 11.48329469 0 0 Z " fill="#9F1416" transform="translate(400,229)"/>
<path d="M0 0 C2.48087198 2.48087198 3.27920046 4.77809745 4.6015625 8.03125 C5.09140625 9.23394531 5.58125 10.43664062 6.0859375 11.67578125 C6.46443848 12.61671631 6.46443848 12.61671631 6.85058594 13.57666016 C7.62307301 15.49521411 8.40464939 17.40987364 9.1875 19.32421875 C13 28.734437 13 28.734437 13 31 C13.66 31 14.32 31 15 31 C15.33 30.34 15.66 29.68 16 29 C16 30.32 16 31.64 16 33 C15.01 33.495 15.01 33.495 14 34 C12.97549761 36.18137797 12.97549761 36.18137797 12 39 C11.773125 39.59167969 11.54625 40.18335938 11.3125 40.79296875 C9.97920867 44.2720258 8.77151161 47.74801478 7.6875 51.3125 C5.86469544 56.91811402 2.93764054 61.91379388 0 67 C-6.50052986 60.94018403 -9.02935426 51.1440152 -12 43 C-12.39960937 41.94039062 -12.79921875 40.88078125 -13.2109375 39.7890625 C-14 37 -14 37 -13 34 C-12.34 34 -11.68 34 -11 34 C-10.80664062 33.32453125 -10.61328125 32.6490625 -10.4140625 31.953125 C-10.15367188 31.06109375 -9.89328125 30.1690625 -9.625 29.25 C-9.36976562 28.36828125 -9.11453125 27.4865625 -8.8515625 26.578125 C-8.07697046 24.23302983 -7.11742943 22.19381044 -6 20 C-5.690625 18.906875 -5.38125 17.81375 -5.0625 16.6875 C-4 13 -4 13 -2.4375 9.4375 C-1.09152544 6.21886517 -0.42031224 3.44656034 0 0 Z " fill="#0D3E80" transform="translate(115,206)"/>
<path d="M0 0 C3.63 0 7.26 0 11 0 C12.50468651 3.1228216 14.0039203 6.24805865 15.5 9.375 C16.14388672 10.70917969 16.14388672 10.70917969 16.80078125 12.0703125 C17.40986328 13.34648437 17.40986328 13.34648437 18.03125 14.6484375 C18.40830078 15.43395996 18.78535156 16.21948242 19.17382812 17.02880859 C20 19 20 19 20 21 C20.66 21 21.32 21 22 21 C22.37125 19.7625 22.7425 18.525 23.125 17.25 C25.12333111 11.19708401 28.05301842 5.63645991 31 0 C34.63 0 38.26 0 42 0 C38.52372719 7.77049217 34.85447415 15.41026224 31 23 C30.34 23 29.68 23 29 23 C27.22598368 27.62974991 26.60358379 31.96044843 26.375 36.875 C26.33632813 37.56335938 26.29765625 38.25171875 26.2578125 38.9609375 C26.16451834 40.64023246 26.08121762 42.32007767 26 44 C22.7 44 19.4 44 16 44 C15.67 38.39 15.34 32.78 15 27 C14.34 27 13.68 27 13 27 C8.48668132 18.07415636 4.06338358 9.14261305 0 0 Z " fill="#A80707" transform="translate(342,229)"/>
<path d="M0 0 C2.88271718 3.80930485 3.16042478 7.36009504 3.09765625 12.1484375 C2.46292539 16.09945883 0.48964135 19.43080318 -2.25 22.3125 C-6.67650673 24.8512318 -11.11500236 24.54532476 -16.0625 24.4375 C-17.24489258 24.42396484 -17.24489258 24.42396484 -18.45117188 24.41015625 C-20.38424666 24.38672504 -22.3171638 24.35085838 -24.25 24.3125 C-24.25 23.9825 -24.25 23.6525 -24.25 23.3125 C-20.29 22.8175 -20.29 22.8175 -16.25 22.3125 C-16.58 21.6525 -16.91 20.9925 -17.25 20.3125 C-12.63 19.9825 -8.01 19.6525 -3.25 19.3125 C-5.78774984 17.22004997 -5.78774984 17.22004997 -7.25 17.3125 C-12.91666667 17.3125 -18.58333333 17.3125 -24.25 17.3125 C-24.25 12.3625 -24.25 7.4125 -24.25 2.3125 C-20.55786078 1.3894652 -17.76850046 1.20903804 -14 1.25 C-12.92234375 1.25902344 -11.8446875 1.26804688 -10.734375 1.27734375 C-9.91453125 1.28894531 -9.0946875 1.30054688 -8.25 1.3125 C-7.92 0.6525 -7.59 -0.0075 -7.25 -0.6875 C-3.96025412 -1.93226871 -2.87258636 -2.15443977 0 0 Z " fill="#A30E0E" transform="translate(290.25,233.6875)"/>
<path d="M0 0 C0.66 0.66 1.32 1.32 2 2 C1.77082775 5.89592826 1.03515058 9.157453 -0.5625 12.6875 C-2.26539541 16.00973597 -2.26539541 16.00973597 -2 20 C3.94 20.66 9.88 21.32 16 22 C15.67 23.32 15.34 24.64 15 26 C12.29283758 26.90238747 10.76223232 27.11851302 7.98828125 27.09765625 C6.85229492 27.09282227 6.85229492 27.09282227 5.69335938 27.08789062 C4.90767578 27.07951172 4.12199219 27.07113281 3.3125 27.0625 C2.51521484 27.05798828 1.71792969 27.05347656 0.89648438 27.04882812 C-1.06904257 27.0370585 -3.03453085 27.01912348 -5 27 C-5.144375 28.093125 -5.28875 29.18625 -5.4375 30.3125 C-6 34 -6 34 -7 37 C-10.3 37 -13.6 37 -17 37 C-16.39446944 33.68857325 -15.59808878 30.59069874 -14.4765625 27.41796875 C-14.1775 26.56783203 -13.8784375 25.71769531 -13.5703125 24.84179688 C-13.25835937 23.96587891 -12.94640625 23.08996094 -12.625 22.1875 C-12.32078125 21.32318359 -12.0165625 20.45886719 -11.703125 19.56835938 C-11.09953667 17.85948215 -10.49106639 16.15232047 -9.87744141 14.44702148 C-9.3054191 12.85175727 -8.74461953 11.25241054 -8.19677734 9.64868164 C-6.29028455 4.21425764 -6.29028455 4.21425764 -3.375 2.0625 C-2.59125 1.711875 -1.8075 1.36125 -1 1 C-0.67 0.67 -0.34 0.34 0 0 Z " fill="#A40808" transform="translate(312,236)"/>
<path d="M0 0 C5.28 0 10.56 0 16 0 C17.91539047 4.96260257 19.60961435 9.86626838 21 15 C20.01 14.67 19.02 14.34 18 14 C17.87625 13.195625 17.7525 12.39125 17.625 11.5625 C17.41875 10.716875 17.2125 9.87125 17 9 C16.34 8.67 15.68 8.34 15 8 C15 6.02 15 4.04 15 2 C12.36 2 9.72 2 7 2 C7 2.66 7 3.32 7 4 C7.66 4 8.32 4 9 4 C9 4.66 9 5.32 9 6 C9.99 6.33 10.98 6.66 12 7 C12.12375 7.969375 12.2475 8.93875 12.375 9.9375 C12.58125 10.948125 12.7875 11.95875 13 13 C13.66 13.33 14.32 13.66 15 14 C15 18.29 15 22.58 15 27 C10.71 27 6.42 27 2 27 C1.67 22.38 1.34 17.76 1 13 C-2.03268602 15.83656989 -2.03268602 15.83656989 -4 19 C-5.39035371 14.82893888 -3.90230806 11.81793141 -2.5625 7.8125 C-2.31951172 7.06291016 -2.07652344 6.31332031 -1.82617188 5.54101562 C-1.22534944 3.69142499 -0.61370322 1.84535673 0 0 Z " fill="#A01112" transform="translate(400,229)"/>
<path d="M0 0 C0.66 0 1.32 0 2 0 C2.81627446 2.39460588 3.62811645 4.79056526 4.4375 7.1875 C4.66759766 7.86103516 4.89769531 8.53457031 5.13476562 9.22851562 C6.34812561 12.83342572 7.25066635 16.25333173 8 20 C3.05 20 -1.9 20 -7 20 C-7.33 20.66 -7.66 21.32 -8 22 C-9.32 21.67 -10.64 21.34 -12 21 C-12 21.66 -12 22.32 -12 23 C-11.01 23.33 -10.02 23.66 -9 24 C-9 24.66 -9 25.32 -9 26 C-2.4 26 4.2 26 11 26 C11 26.33 11 26.66 11 27 C4.4 27 -2.2 27 -9 27 C-9.99 29.97 -10.98 32.94 -12 36 C-15.3 36 -18.6 36 -22 36 C-21.23954796 33.2467428 -20.46716534 30.49781767 -19.6875 27.75 C-19.47416016 26.97269531 -19.26082031 26.19539063 -19.04101562 25.39453125 C-17.89152053 21.37987673 -16.88693152 18.14937985 -14 15 C-13.67 16.65 -13.34 18.3 -13 20 C-11.68 19.67 -10.36 19.34 -9 19 C-8.67 17.35 -8.34 15.7 -8 14 C-7.34 14 -6.68 14 -6 14 C-5.67 12.35 -5.34 10.7 -5 9 C-4.01 9 -3.02 9 -2 9 C-1.855625 8.071875 -1.71125 7.14375 -1.5625 6.1875 C-1 3 -1 3 0 0 Z " fill="#A0191A" transform="translate(229,237)"/>
<path d="M0 0 C4.6 2.2 4.6 2.2 6 5 C6.49428988 9.19741246 6.70057419 12.78161011 4.5625 16.5 C0.91686764 18.6340287 -2.78501521 19.23287209 -7 19 C-7.99 18.34 -8.98 17.68 -10 17 C-10 16.34 -10 15.68 -10 15 C-10.66 15 -11.32 15 -12 15 C-13.60365544 6.99915383 -13.60365544 6.99915383 -11.1875 3 C-7.48085684 -0.38893089 -4.9792069 -0.33757335 0 0 Z " fill="#2E5386" transform="translate(258,289)"/>
<path d="M0 0 C3.63 0 7.26 0 11 0 C7.52372719 7.77049217 3.85447415 15.41026224 0 23 C-0.66 23 -1.32 23 -2 23 C-3.77401632 27.62974991 -4.39641621 31.96044843 -4.625 36.875 C-4.68300781 37.90753906 -4.68300781 37.90753906 -4.7421875 38.9609375 C-4.83548166 40.64023246 -4.91878238 42.32007767 -5 44 C-8.3 44 -11.6 44 -15 44 C-15 39.38 -15 34.76 -15 30 C-14.67 30 -14.34 30 -14 30 C-14 34.29 -14 38.58 -14 43 C-11.36 43 -8.72 43 -6 43 C-6.33 37.06 -6.66 31.12 -7 25 C-6.34 24.67 -5.68 24.34 -5 24 C-5.33 23.01 -5.66 22.02 -6 21 C-7.47245333 14.89560805 -6.50476395 11.79873245 -3.5625 6.5625 C-3.05493164 5.60827148 -3.05493164 5.60827148 -2.53710938 4.63476562 C-1.70768013 3.08104605 -0.85606297 1.5392055 0 0 Z " fill="#A20808" transform="translate(373,229)"/>
<path d="M0 0 C9.625 -0.25 9.625 -0.25 13 2 C12.67 4.97 12.34 7.94 12 11 C12.66 11 13.32 11 14 11 C14.25 13.3125 14.25 13.3125 14 16 C11.80981386 18.14962714 10.49201421 18.94408929 7.421875 19.29296875 C6.54015625 19.25816406 5.6584375 19.22335937 4.75 19.1875 C3.1825 19.125625 1.615 19.06375 0 19 C0 12.73 0 6.46 0 0 Z " fill="#1E4779" transform="translate(74,289)"/>
<path d="M0 0 C2.64 0 5.28 0 8 0 C8 1.98 8 3.96 8 6 C8.99 6.33 9.98 6.66 11 7 C11 8.65 11 10.3 11 12 C11.99 12.33 12.98 12.66 14 13 C14.02698189 14.62490954 14.04638757 16.24994633 14.0625 17.875 C14.07410156 18.77992188 14.08570313 19.68484375 14.09765625 20.6171875 C14 23 14 23 13 25 C13.66 25.33 14.32 25.66 15 26 C14.34 26 13.68 26 13 26 C13 27.98 13 29.96 13 32 C10.04112541 32.08069658 7.0844341 32.14034665 4.125 32.1875 C3.28324219 32.21263672 2.44148438 32.23777344 1.57421875 32.26367188 C0.76855469 32.27333984 -0.03710938 32.28300781 -0.8671875 32.29296875 C-1.61081543 32.3086792 -2.35444336 32.32438965 -3.12060547 32.34057617 C-4.05090576 32.17199097 -4.05090576 32.17199097 -5 32 C-5.66 31.01 -6.32 30.02 -7 29 C-6.34 28.34 -5.68 27.68 -5 27 C-2.98687512 27.25975805 -0.97381365 27.52382828 1.03125 27.83984375 C3.53830163 28.04379041 4.92026953 27.35982377 7 26 C7.66 26 8.32 26 9 26 C8.66226562 25.44828125 8.32453125 24.8965625 7.9765625 24.328125 C6.78898739 21.49694595 6.97724297 19.77295344 7.375 16.75 C7.48585938 15.85796875 7.59671875 14.9659375 7.7109375 14.046875 C7.80632812 13.37140625 7.90171875 12.6959375 8 12 C7.01 11.67 6.02 11.34 5 11 C4.87625 10.030625 4.7525 9.06125 4.625 8.0625 C4.41875 7.051875 4.2125 6.04125 4 5 C3.34 4.67 2.68 4.34 2 4 C2 3.34 2 2.68 2 2 C1.34 2 0.68 2 0 2 C0 1.34 0 0.68 0 0 Z " fill="#A30606" transform="translate(407,231)"/>
<path d="M0 0 C5.35886617 1.07177323 5.803125 1.33976716 8.8125 5.4375 C9.41707031 6.24058594 10.02164062 7.04367187 10.64453125 7.87109375 C12 10 12 10 12 12 C12.66 12 13.32 12 14 12 C14 8.04 14 4.08 14 0 C15.32 0 16.64 0 18 0 C18 6.27 18 12.54 18 19 C13 19 13 19 11.015625 17.06640625 C10.14164062 15.82697266 10.14164062 15.82697266 9.25 14.5625 C8.65703125 13.73878906 8.0640625 12.91507812 7.453125 12.06640625 C6.97359375 11.38449219 6.4940625 10.70257813 6 10 C5.67 9.67 5.34 9.34 5 9 C4.67 12.3 4.34 15.6 4 19 C2.68 19 1.36 19 0 19 C0 12.73 0 6.46 0 0 Z " fill="#32588D" transform="translate(380,289)"/>
<path d="M0 0 C5 1 5 1 6.73046875 2.8125 C7.21128906 3.534375 7.69210938 4.25625 8.1875 5 C10.1216608 8.02944723 10.1216608 8.02944723 13 10 C13 6.7 13 3.4 13 0 C14.32 0 15.64 0 17 0 C17 6.27 17 12.54 17 19 C15.35 19 13.7 19 12 19 C10.234375 17.06640625 10.234375 17.06640625 8.75 14.5625 C8.24984375 13.73878906 7.7496875 12.91507812 7.234375 12.06640625 C6.82703125 11.38449219 6.4196875 10.70257813 6 10 C5.67 9.67 5.34 9.34 5 9 C4.67 12.3 4.34 15.6 4 19 C2.68 19 1.36 19 0 19 C0 12.73 0 6.46 0 0 Z " fill="#2B5181" transform="translate(141,289)"/>
<path d="M0 0 C5.41543537 1.08308707 5.81188089 1.38516751 8.8125 5.5625 C9.41707031 6.38878906 10.02164062 7.21507812 10.64453125 8.06640625 C11.09183594 8.70449219 11.53914063 9.34257812 12 10 C12.33 6.7 12.66 3.4 13 0 C14.32 0 15.64 0 17 0 C17 6.27 17 12.54 17 19 C11.58456463 17.91691293 11.18811911 17.61483249 8.1875 13.4375 C7.28064453 12.19806641 7.28064453 12.19806641 6.35546875 10.93359375 C5.90816406 10.29550781 5.46085937 9.65742188 5 9 C4.67 12.3 4.34 15.6 4 19 C2.68 19 1.36 19 0 19 C0 12.73 0 6.46 0 0 Z " fill="#2C5489" transform="translate(270,289)"/>
<path d="M0 0 C1.5625 1.6875 1.5625 1.6875 3 4 C2.6875 6.75 2.6875 6.75 2 9 C1.34 9 0.68 9 0 9 C0.33 9.99 0.66 10.98 1 12 C1.07029121 14.57265818 1.09370832 17.11641431 1.0625 19.6875 C1.05798828 20.38939453 1.05347656 21.09128906 1.04882812 21.81445312 C1.03706927 23.54300538 1.01913454 25.27151365 1 27 C-1.64 27 -4.28 27 -7 27 C-7.07347656 25.64455078 -7.07347656 25.64455078 -7.1484375 24.26171875 C-7.22320312 23.08222656 -7.29796875 21.90273438 -7.375 20.6875 C-7.44460938 19.51574219 -7.51421875 18.34398437 -7.5859375 17.13671875 C-7.78613747 13.84300113 -7.78613747 13.84300113 -10 11 C-10.4140625 8.73828125 -10.4140625 8.73828125 -10.625 6.3125 C-10.69976562 5.50425781 -10.77453125 4.69601563 -10.8515625 3.86328125 C-10.90054687 3.24839844 -10.94953125 2.63351563 -11 2 C-7.54074837 3.2491742 -4.85306797 4.67527795 -2 7 C-1.34 4.69 -0.68 2.38 0 0 Z " fill="#A40706" transform="translate(366,245)"/>
<path d="M0 0 C2.29141286 -0.05384521 4.58318188 -0.09272087 6.875 -0.125 C8.78925781 -0.15980469 8.78925781 -0.15980469 10.7421875 -0.1953125 C14 0 14 0 16 2 C16.265625 4.09375 16.265625 4.09375 16.25 6.5 C16.25515625 7.2940625 16.2603125 8.088125 16.265625 8.90625 C16 11 16 11 14 13 C10.7421875 13.1953125 10.7421875 13.1953125 6.875 13.125 C4.95300781 13.09792969 4.95300781 13.09792969 2.9921875 13.0703125 C1.51105469 13.03550781 1.51105469 13.03550781 0 13 C0 8.71 0 4.42 0 0 Z " fill="#FDF5F4" transform="translate(266,237)"/>
<path d="M0 0 C1.65 0 3.3 0 5 0 C7.70071112 6.27980887 9.70024676 12.28460827 11 19 C9.35 19 7.7 19 6 19 C6 18.01 6 17.02 6 16 C3.36 16 0.72 16 -2 16 C-2 16.99 -2 17.98 -2 19 C-3.32 19 -4.64 19 -6 19 C-5.39124245 14.39583374 -4.15277044 10.43516676 -2.4375 6.125 C-1.75494141 4.39636719 -1.75494141 4.39636719 -1.05859375 2.6328125 C-0.70925781 1.76398438 -0.35992187 0.89515625 0 0 Z " fill="#19427A" transform="translate(365,289)"/>
<path d="M0 0 C1.32 0 2.64 0 4 0 C4 4.95 4 9.9 4 15 C5.98 14.67 7.96 14.34 10 14 C10.33 9.38 10.66 4.76 11 0 C12.65 0 14.3 0 16 0 C16.0809723 2.43816585 16.14046972 4.87364384 16.1875 7.3125 C16.21263672 8.00279297 16.23777344 8.69308594 16.26367188 9.40429688 C16.33716109 14.47505298 16.33716109 14.47505298 14.765625 16.921875 C12.64651129 18.21584709 11.02629279 18.63420004 8.5625 18.9375 C7.41974609 19.10572266 7.41974609 19.10572266 6.25390625 19.27734375 C4 19 4 19 1.73046875 17.48828125 C-0.6135428 14.11777254 -0.44379161 11.19291384 -0.25 7.25 C-0.23195313 6.55261719 -0.21390625 5.85523438 -0.1953125 5.13671875 C-0.14838554 3.42388461 -0.07664605 1.71176176 0 0 Z " fill="#1A4477" transform="translate(310,289)"/>
<path d="M0 0 C3.96 0 7.92 0 12 0 C12 1.32 12 2.64 12 4 C9.36 4 6.72 4 4 4 C4 4.99 4 5.98 4 7 C6.31 7 8.62 7 11 7 C11 8.32 11 9.64 11 11 C8.69 11 6.38 11 4 11 C4 12.32 4 13.64 4 15 C6.64 15 9.28 15 12 15 C12 16.32 12 17.64 12 19 C8.04 19 4.08 19 0 19 C0 12.73 0 6.46 0 0 Z " fill="#0B3978" transform="translate(164,289)"/>
<path d="M0 0 C1.32 0 2.64 0 4 0 C4 4.95 4 9.9 4 15 C5.98 14.67 7.96 14.34 10 14 C10.33 9.38 10.66 4.76 11 0 C12.32 0 13.64 0 15 0 C15.10826289 2.4178712 15.18739789 4.83087556 15.25 7.25 C15.30027344 8.27287109 15.30027344 8.27287109 15.3515625 9.31640625 C15.41794906 12.73531422 15.25363918 14.64625489 13.23828125 17.45703125 C9.58131472 19.97797676 7.37448136 19.48605348 3 19 C1.265625 17.984375 1.265625 17.984375 0 16 C-0.21714241 13.18872957 -0.28284276 10.6116655 -0.1875 7.8125 C-0.17396484 7.06291016 -0.16042969 6.31332031 -0.14648438 5.54101562 C-0.11118539 3.69370233 -0.05737917 1.84675934 0 0 Z " fill="#345888" transform="translate(93,289)"/>
<path d="M0 0 C3.95276161 3.95276161 5.53896874 9.9083863 7.6875 15 C8.21652575 16.22667946 8.74581952 17.45324338 9.27539062 18.6796875 C9.76587891 19.83726562 10.25636719 20.99484375 10.76171875 22.1875 C11.21506592 23.25355469 11.66841309 24.31960937 12.13549805 25.41796875 C12.56342651 26.69607422 12.56342651 26.69607422 13 28 C12.67 28.66 12.34 29.32 12 30 C9.2160817 28.60804085 9.02101003 26.84424221 8 24 C6.68 24.33 5.36 24.66 4 25 C3.67 23.35 3.34 21.7 3 20 C3.66 20 4.32 20 5 20 C4.67 19.236875 4.34 18.47375 4 17.6875 C3 15 3 15 3 12 C-0.0109362 14.0072908 -0.63016497 14.83884224 -2 18 C-2.99 18 -3.98 18 -5 18 C-6.68798827 19.43750191 -6.68798827 19.43750191 -8 21 C-5.72564796 13.81783567 -2.96415819 6.9241798 0 0 Z " fill="#A11C1C" transform="translate(159,166)"/>
<path d="M0 0 C2.9375 1.875 2.9375 1.875 5 4 C5 4.66 5 5.32 5 6 C0.71 5.67 -3.58 5.34 -8 5 C-8.16677282 8.41656024 -8.16677282 8.41656024 -8 12 C-7.34 12.66 -6.68 13.32 -6 14 C-3.32186601 14.02207488 -3.32186601 14.02207488 -0.375 13.625 C0.62789062 13.51414062 1.63078125 13.40328125 2.6640625 13.2890625 C3.43492187 13.19367188 4.20578125 13.09828125 5 13 C4 16 4 16 1 18 C-2.41299006 18.59257256 -5.58996472 18.62405874 -9 18 C-11.77223107 15.4211804 -12.84448465 13.76476113 -13.1796875 9.9609375 C-12.96918072 6.21391679 -12.33957906 4.39950477 -9.875 1.5 C-6.22414536 -0.40479372 -4.06992108 -0.5814173 0 0 Z " fill="#264C80" transform="translate(236,289)"/>
<path d="M0 0 C3 0.1875 3 0.1875 5 1.1875 C5 2.1775 5 3.1675 5 4.1875 C2.69 4.1875 0.38 4.1875 -2 4.1875 C-2 5.1775 -2 6.1675 -2 7.1875 C-0.88625 7.47625 0.2275 7.765 1.375 8.0625 C5 9.1875 5 9.1875 7 11.1875 C7.125 14.3125 7.125 14.3125 7 17.1875 C6.34 17.1875 5.68 17.1875 5 17.1875 C5 17.8475 5 18.5075 5 19.1875 C3.741875 19.22875 2.48375 19.27 1.1875 19.3125 C0.47980469 19.33570313 -0.22789062 19.35890625 -0.95703125 19.3828125 C-3 19.1875 -3 19.1875 -6 17.1875 C-5.67 15.8675 -5.34 14.5475 -5 13.1875 C-2.69 13.8475 -0.38 14.5075 2 15.1875 C2 14.1975 2 13.2075 2 12.1875 C1.05125 11.919375 0.1025 11.65125 -0.875 11.375 C-4 10.1875 -4 10.1875 -6 7.1875 C-5.56129128 2.69073566 -4.88882423 0.30555151 0 0 Z " fill="#1F4476" transform="translate(203,288.8125)"/>
<path d="M0 0 C0 1.32 0 2.64 0 4 C-2.97 3.505 -2.97 3.505 -6 3 C-6 3.99 -6 4.98 -6 6 C-4.2984375 6.4640625 -4.2984375 6.4640625 -2.5625 6.9375 C1 8 1 8 2 9 C2.23529412 14.52941176 2.23529412 14.52941176 1 17 C-6.10556422 18.51430057 -6.10556422 18.51430057 -9.5 16.5625 C-9.995 16.046875 -10.49 15.53125 -11 15 C-10.67 14.01 -10.34 13.02 -10 12 C-9.01 12 -8.02 12 -7 12 C-7 12.66 -7 13.32 -7 14 C-5.35 14 -3.7 14 -2 14 C-2 13.01 -2 12.02 -2 11 C-3.7015625 10.566875 -3.7015625 10.566875 -5.4375 10.125 C-6.613125 9.75375 -7.78875 9.3825 -9 9 C-10.39431504 6.21136993 -10.25660094 4.07921132 -10 1 C-6.1496895 -1.56687367 -4.41430237 -0.83288724 0 0 Z " fill="#254D81" transform="translate(303,290)"/>
<path d="M0 0 C3.0625 0.25 3.0625 0.25 6.0625 2.25 C5.7325 3.24 5.4025 4.23 5.0625 5.25 C2.0925 4.755 2.0925 4.755 -0.9375 4.25 C-0.9375 5.24 -0.9375 6.23 -0.9375 7.25 C0.7640625 7.7140625 0.7640625 7.7140625 2.5 8.1875 C6.0625 9.25 6.0625 9.25 7.0625 10.25 C7.5181962 15.49050633 7.5181962 15.49050633 5.9375 18.125 C3.16953881 19.78577671 1.23159182 19.63805206 -1.9375 19.25 C-4.3125 17.875 -4.3125 17.875 -5.9375 16.25 C-5.9375 15.59 -5.9375 14.93 -5.9375 14.25 C-2.9675 14.58 0.0025 14.91 3.0625 15.25 C3.0625 14.26 3.0625 13.27 3.0625 12.25 C2.11375 11.981875 1.165 11.71375 0.1875 11.4375 C-2.9375 10.25 -2.9375 10.25 -4.9375 7.25 C-5.1875 4.6875 -5.1875 4.6875 -4.9375 2.25 C-2.9375 0.25 -2.9375 0.25 0 0 Z " fill="#315787" transform="translate(422.9375,288.75)"/>
<path d="M0 0 C2 1 2 1 3.2890625 4.2734375 C3.74216125 5.63806434 4.18713794 7.0054082 4.625 8.375 C4.85445313 9.06078125 5.08390625 9.7465625 5.3203125 10.453125 C6.28795001 13.413635 7 15.86608457 7 19 C2.71 19 -1.58 19 -6 19 C-5.35170298 15.11021788 -4.79849762 11.99973915 -3.5625 8.375 C-3.31628906 7.64023438 -3.07007813 6.90546875 -2.81640625 6.1484375 C-2.00584797 4.0153894 -1.05628679 2.02112018 0 0 Z " fill="#FAF1F1" transform="translate(317,237)"/>
<path d="M0 0 C0.66 0 1.32 0 2 0 C2.84080019 2.41429769 3.67281402 4.83103993 4.5 7.25 C4.73847656 7.93191406 4.97695312 8.61382812 5.22265625 9.31640625 C6.39421287 12.76413003 7 15.31702904 7 19 C2.71 19 -1.58 19 -6 19 C-4.11409966 12.62386075 -2.14364744 6.29411375 0 0 Z " fill="#FCF0EF" transform="translate(229,237)"/>
<path d="M0 0 C3.5 0.1875 3.5 0.1875 5.5 1.1875 C5.5 2.1775 5.5 3.1675 5.5 4.1875 C2.48968256 5.12173645 1.63349732 5.23199911 -1.5 4.1875 C-1.5 5.1775 -1.5 6.1675 -1.5 7.1875 C-0.076875 7.620625 -0.076875 7.620625 1.375 8.0625 C4.5 9.1875 4.5 9.1875 6.5 11.1875 C6.3125 14.1875 6.3125 14.1875 5.5 17.1875 C2.03076119 19.50032587 0.57794425 19.61228586 -3.5 19.1875 C-5.375 17.8125 -5.375 17.8125 -6.5 16.1875 C-6.5 15.5275 -6.5 14.8675 -6.5 14.1875 C-3.53 14.5175 -0.56 14.8475 2.5 15.1875 C2.5 14.1975 2.5 13.2075 2.5 12.1875 C0.7984375 11.754375 0.7984375 11.754375 -0.9375 11.3125 C-2.113125 10.94125 -3.28875 10.57 -4.5 10.1875 C-5.88125018 7.42499964 -5.69079306 5.24018901 -5.5 2.1875 C-3.5 0.1875 -3.5 0.1875 0 0 Z " fill="#153D79" transform="translate(119.5,288.8125)"/>
<path d="M0 0 C2.07217485 3.10826228 3.28425355 6.01876359 4.625 9.5 C5.07101562 10.6446875 5.51703125 11.789375 5.9765625 12.96875 C7 16 7 16 7 19 C2.71 19 -1.58 19 -6 19 C-4.83895158 12.0337095 -3.34171079 6.22773374 0 0 Z " fill="#FAEEED" transform="translate(408,237)"/>
<path d="M0 0 C0 0.99 0 1.98 0 3 C-2.31 3 -4.62 3 -7 3 C-5.16457099 5.12523359 -4.10928517 5.96617364 -1.375 6.8125 C-0.59125 7.204375 0.1925 7.59625 1 8 C2.47368421 13.05263158 2.47368421 13.05263158 1 16 C0.34 16 -0.32 16 -1 16 C-1 16.66 -1 17.32 -1 18 C-4.94727588 18.17942163 -7.5980513 18.09350689 -11 16 C-11 15.01 -11 14.02 -11 13 C-8.03 13.33 -5.06 13.66 -2 14 C-2 13.01 -2 12.02 -2 11 C-2.7425 10.9175 -3.485 10.835 -4.25 10.75 C-7.61204018 9.83307995 -8.96464165 8.81818848 -11 6 C-10.9375 3.375 -10.9375 3.375 -10 1 C-6.1496895 -1.56687367 -4.41430237 -0.83288724 0 0 Z " fill="#365C8E" transform="translate(191,290)"/>
<path d="M0 0 C0.66 0 1.32 0 2 0 C2 0.66 2 1.32 2 2 C2.66 2 3.32 2 4 2 C4.33 5.63 4.66 9.26 5 13 C5.66 13 6.32 13 7 13 C7.36368892 14.60203467 7.71561952 16.20674203 8.0625 17.8125 C8.25972656 18.70582031 8.45695312 19.59914062 8.66015625 20.51953125 C9 23 9 23 8 26 C6.35 25.67 4.7 25.34 3 25 C0.66666667 11.66666667 0.66666667 11.66666667 2 9 C1.34 9 0.68 9 0 9 C-1.125 3.375 -1.125 3.375 0 0 Z " fill="#A40706" transform="translate(322,231)"/>
<path d="M0 0 C4.62 0 9.24 0 14 0 C14 1.32 14 2.64 14 4 C12.35 4 10.7 4 9 4 C9 8.95 9 13.9 9 19 C7.68 19 6.36 19 5 19 C5 14.05 5 9.1 5 4 C3.35 4 1.7 4 0 4 C0 2.68 0 1.36 0 0 Z " fill="#123C78" transform="translate(401,289)"/>
<path d="M0 0 C4.62 0 9.24 0 14 0 C14 1.32 14 2.64 14 4 C12.35 4 10.7 4 9 4 C9 8.95 9 13.9 9 19 C7.68 19 6.36 19 5 19 C5 14.05 5 9.1 5 4 C3.35 4 1.7 4 0 4 C0 2.68 0 1.36 0 0 Z " fill="#274C7C" transform="translate(343,289)"/>
<path d="M0 0 C1.50156874 3.00313748 1.09281204 5.79067522 1.0625 9.125 C1.05347656 10.40632813 1.04445313 11.68765625 1.03515625 13.0078125 C1.02355469 13.99523437 1.01195312 14.98265625 1 16 C-1.64 16 -4.28 16 -7 16 C-7.78476365 4.9086737 -7.78476365 4.9086737 -4.625 1.25 C-2 0 -2 0 0 0 Z " fill="#A40707" transform="translate(264,256)"/>
<path d="M0 0 C5.28 0 10.56 0 16 0 C16.33773437 1.09699219 16.67546875 2.19398438 17.0234375 3.32421875 C17.47385102 4.77867907 17.92437784 6.23310431 18.375 7.6875 C18.59671875 8.40873047 18.8184375 9.12996094 19.046875 9.87304688 C19.99198105 12.91684429 20.95140275 15.88176843 22.1640625 18.83203125 C23 21 23 21 23 24 C22.34 24 21.68 24 21 24 C20.34 20.7 19.68 17.4 19 14 C18.34 14 17.68 14 17 14 C16.67 13.01 16.34 12.02 16 11 C13.98491642 10.26676204 13.98491642 10.26676204 12 10 C11.67 10.99 11.34 11.98 11 13 C11.020625 12.236875 11.04125 11.47375 11.0625 10.6875 C11.12942841 7.89814214 11.12942841 7.89814214 10 5 C11.32 5 12.64 5 14 5 C14 4.01 14 3.02 14 2 C9.71 2 5.42 2 1 2 C1 2.99 1 3.98 1 5 C0.34 5 -0.32 5 -1 5 C-0.67 3.35 -0.34 1.7 0 0 Z " fill="#971617" transform="translate(222,229)"/>
<path d="M0 0 C1.4606285 2.64738916 2 3.89448334 2 7 C1.34 7.66 0.68 8.32 0 9 C-0.66 8.67 -1.32 8.34 -2 8 C-1.47731534 5.23723823 -0.89130413 2.6739124 0 0 Z M2 0 C3.65 0.33 5.3 0.66 7 1 C7 2.32 7 3.64 7 5 C7.99 5 8.98 5 10 5 C8.79618552 7.49361571 7.54571278 9.68143083 6 12 C5.24464834 14.21367658 4.54099411 16.44531982 3.875 18.6875 C3.52179688 19.86699219 3.16859375 21.04648438 2.8046875 22.26171875 C2.53914063 23.16535156 2.27359375 24.06898438 2 25 C6.29 25 10.58 25 15 25 C15.33 24.34 15.66 23.68 16 23 C16.33 23.99 16.66 24.98 17 26 C11.72 26 6.44 26 1 26 C-0.01683167 20.91584165 -0.05602341 20.34362769 2 16.0625 C3.80422523 11.88364156 4.35331792 9.47635926 3 5 C2.814375 4.05125 2.62875 3.1025 2.4375 2.125 C2.293125 1.42375 2.14875 0.7225 2 0 Z " fill="#A51516" transform="translate(309,231)"/>
<path d="M0 0 C4.95 0 9.9 0 15 0 C14.67 0.99 14.34 1.98 14 3 C14 2.34 14 1.68 14 1 C13.34 1 12.68 1 12 1 C12 3.97 12 6.94 12 10 C12.66 10 13.32 10 14 10 C14.22151549 11.79008467 14.42682213 13.58218162 14.625 15.375 C14.74101562 16.37273437 14.85703125 17.37046875 14.9765625 18.3984375 C14.98429687 19.25695312 14.99203125 20.11546875 15 21 C14.34 21.66 13.68 22.32 13 23 C12.32389577 21.10751181 11.65949561 19.2108398 11 17.3125 C10.62875 16.25675781 10.2575 15.20101562 9.875 14.11328125 C9.0608143 11.21637944 8.82290204 8.98299377 9 6 C7.35 5.67 5.7 5.34 4 5 C4 3.68 4 2.36 4 1 C3.01 1 2.02 1 1 1 C1.33 2.65 1.66 4.3 2 6 C1.34 5.67 0.68 5.34 0 5 C0 3.35 0 1.7 0 0 Z " fill="#9C0606" transform="translate(310,230)"/>
<path d="M0 0 C1 1 1 1 1.25 3.875 C1 7 1 7 -0.1875 8.875 C-2.65507108 10.40659584 -4.14519831 10.42822025 -7 10 C-8.875 8.9375 -8.875 8.9375 -10 7 C-9.8125 3.375 -9.8125 3.375 -9 0 C-5.90842747 -1.54578627 -3.31526981 -0.60277633 0 0 Z " fill="#E7F1F7" transform="translate(259,294)"/>
<path d="M0 0 C1.32 0 2.64 0 4 0 C4 5.28 4 10.56 4 16 C5.98 16 7.96 16 10 16 C10 16.99 10 17.98 10 19 C6.7 19 3.4 19 0 19 C0 12.73 0 6.46 0 0 Z " fill="#284C7C" transform="translate(331,289)"/>
<path d="M0 0 C0.66 0.33 1.32 0.66 2 1 C2.05406122 2.93719378 2.09282025 4.87481921 2.125 6.8125 C2.14820313 7.89144531 2.17140625 8.97039062 2.1953125 10.08203125 C2 13 2 13 0 16 C-2.5 16.625 -2.5 16.625 -5 17 C-5.66 17.33 -6.32 17.66 -7 18 C-5.4432194 5.15656009 -5.4432194 5.15656009 -1 1 C-0.67 0.67 -0.34 0.34 0 0 Z " fill="#A30606" transform="translate(400,241)"/>
<path d="M0 0 C1.9009762 2.8514643 2.96265899 5.29710476 4.125 8.5 C4.47820312 9.4590625 4.83140625 10.418125 5.1953125 11.40625 C6 14 6 14 6 17 C4.35 17 2.7 17 1 17 C1 16.01 1 15.02 1 14 C-1.64 14 -4.28 14 -7 14 C-7 13.67 -7 13.34 -7 13 C-4.36 12.67 -1.72 12.34 1 12 C-0.98 11.34 -2.96 10.68 -5 10 C-4.25 5.25 -4.25 5.25 -2 3 C-1.34 2.01 -0.68 1.02 0 0 Z " fill="#335686" transform="translate(370,291)"/>
<path d="M0 0 C2.29013653 3.4352048 2.17842973 4.985331 2 9 C2.99 9 3.98 9 5 9 C4.67 11.31 4.34 13.62 4 16 C0.7 16 -2.6 16 -6 16 C-4.23196827 10.52752083 -2.34565002 5.24978815 0 0 Z " fill="#9F0909" transform="translate(213,257)"/>
<path d="M0 0 C0.33 1.32 0.66 2.64 1 4 C0.01 4.495 0.01 4.495 -1 5 C-2.02450239 7.18137797 -2.02450239 7.18137797 -3 10 C-3.226875 10.59167969 -3.45375 11.18335938 -3.6875 11.79296875 C-5.02079133 15.2720258 -6.22848839 18.74801478 -7.3125 22.3125 C-9.13530456 27.91811402 -12.06235946 32.91379388 -15 38 C-15.66 37.67 -16.32 37.34 -17 37 C-17 36.01 -17 35.02 -17 34 C-16.01 33.505 -16.01 33.505 -15 33 C-14.28392245 31.15865772 -13.57767035 29.31288205 -12.921875 27.44921875 C-11.89011118 24.70804961 -10.68098098 22.08904032 -9.4375 19.4375 C-7.53675362 15.32684969 -6.07425788 11.39469132 -5 7 C-4.34 7 -3.68 7 -3 7 C-3.33 5.02 -3.66 3.04 -4 1 C-2.68 1.33 -1.36 1.66 0 2 C0 1.34 0 0.68 0 0 Z " fill="#5F2243" transform="translate(130,235)"/>
<path d="M0 0 C1.65 0 3.3 0 5 0 C5.0809723 2.43816585 5.14046972 4.87364384 5.1875 7.3125 C5.22520508 8.34793945 5.22520508 8.34793945 5.26367188 9.40429688 C5.33777767 14.5175964 5.33777767 14.5175964 3.61328125 16.98046875 C2 18 2 18 0 18 C-1.30062431 14.18483536 -0.89369853 10.72438237 -0.5625 6.75 C-0.46066406 5.48671875 -0.35882813 4.2234375 -0.25390625 2.921875 C-0.17011719 1.95765625 -0.08632813 0.9934375 0 0 Z " fill="#53749E" transform="translate(321,289)"/>
<path d="M0 0 C2.475 0.495 2.475 0.495 5 1 C4.67 6.94 4.34 12.88 4 19 C2.68 19 1.36 19 0 19 C0 12.73 0 6.46 0 0 Z " fill="#113E76" transform="translate(380,289)"/>
<path d="M0 0 C1.32 0 2.64 0 4 0 C4 6.27 4 12.54 4 19 C2.68 19 1.36 19 0 19 C0 12.73 0 6.46 0 0 Z " fill="#12396F" transform="translate(131,289)"/>
<path d="M0 0 C0.33 0.66 0.66 1.32 1 2 C0.0625 4.125 0.0625 4.125 -1 6 C-1.66 6 -2.32 6 -3 6 C-4.77401632 10.62974991 -5.39641621 14.96044843 -5.625 19.875 C-5.68300781 20.90753906 -5.68300781 20.90753906 -5.7421875 21.9609375 C-5.83548166 23.64023246 -5.91878238 25.32007767 -6 27 C-9.3 27 -12.6 27 -16 27 C-16 22.38 -16 17.76 -16 13 C-15.67 13 -15.34 13 -15 13 C-15 17.29 -15 21.58 -15 26 C-12.36 26 -9.72 26 -7 26 C-7.33 20.06 -7.66 14.12 -8 8 C-7.34 7.67 -6.68 7.34 -6 7 C-5.71125 6.195625 -5.4225 5.39125 -5.125 4.5625 C-4 2 -4 2 -1.875 0.6875 C-1.25625 0.460625 -0.6375 0.23375 0 0 Z " fill="#992224" transform="translate(374,246)"/>
<path d="M0 0 C0.95003906 -0.01675781 1.90007812 -0.03351563 2.87890625 -0.05078125 C5.4375 0.3125 5.4375 0.3125 7.26171875 1.44921875 C8.96390897 4.14670956 8.76360815 6.27901182 8.6875 9.4375 C8.67203125 10.51257813 8.6565625 11.58765625 8.640625 12.6953125 C8.4375 15.3125 8.4375 15.3125 7.4375 16.3125 C4.57482433 16.38575168 1.736781 16.40488205 -1.125 16.375 C-1.93130859 16.37048828 -2.73761719 16.36597656 -3.56835938 16.36132812 C-5.56643756 16.34950518 -7.56447783 16.33156914 -9.5625 16.3125 C-9.5625 15.9825 -9.5625 15.6525 -9.5625 15.3125 C-8.56347656 15.25191406 -7.56445312 15.19132813 -6.53515625 15.12890625 C-4.59962891 15.00322266 -4.59962891 15.00322266 -2.625 14.875 C-1.33722656 14.79378906 -0.04945313 14.71257812 1.27734375 14.62890625 C4.29773957 14.66330812 4.29773957 14.66330812 5.4375 13.3125 C5.5354057 11.81511876 5.56724864 10.31307108 5.5625 8.8125 C5.56507813 7.9978125 5.56765625 7.183125 5.5703125 6.34375 C5.6620178 4.31719623 5.6620178 4.31719623 4.4375 3.3125 C2.08762738 3.07722227 -0.26806039 2.89863583 -2.625 2.75 C-3.91535156 2.66621094 -5.20570313 2.58242187 -6.53515625 2.49609375 C-8.03369141 2.40521484 -8.03369141 2.40521484 -9.5625 2.3125 C-6.29770707 0.37523516 -3.77670339 0.01541512 0 0 Z " fill="#9C2829" transform="translate(275.5625,234.6875)"/>
<path d="M0 0 C4.29 0 8.58 0 13 0 C13 0.99 13 1.98 13 3 C11.35 2.67 9.7 2.34 8 2 C8 2.66 8 3.32 8 4 C7.360625 4.268125 6.72125 4.53625 6.0625 4.8125 C3.66868314 5.88667752 3.66868314 5.88667752 3 9 C0.4375 10.1875 0.4375 10.1875 -2 11 C-1.814375 10.236875 -1.62875 9.47375 -1.4375 8.6875 C-0.77180827 5.91032625 -0.77180827 5.91032625 -2 3 C-1.34 3 -0.68 3 0 3 C0 2.01 0 1.02 0 0 Z " fill="#A60506" transform="translate(223,231)"/>
<path d="M0 0 C3.63 0 7.26 0 11 0 C11.33 1.65 11.66 3.3 12 5 C11.01 4.67 10.02 4.34 9 4 C9 3.34 9 2.68 9 2 C7.35 2 5.7 2 4 2 C4.33 2.5775 4.66 3.155 5 3.75 C6 6 6 6 6 10 C6.66 10 7.32 10 8 10 C8.6708712 11.6232687 9.33657029 13.24867578 10 14.875 C10.37125 15.77992188 10.7425 16.68484375 11.125 17.6171875 C12 20 12 20 12 22 C12.99 22.33 13.98 22.66 15 23 C14.34 24.32 13.68 25.64 13 27 C8.48668132 18.07415636 4.06338358 9.14261305 0 0 Z " fill="#8D1618" transform="translate(342,229)"/>
<path d="M0 0 C2.66666667 0 5.33333333 0 8 0 C8 0.99 8 1.98 8 3 C7.34 3 6.68 3 6 3 C5.87625 3.804375 5.7525 4.60875 5.625 5.4375 C5.41875 6.283125 5.2125 7.12875 5 8 C4.01 8.495 4.01 8.495 3 9 C2.34786708 11.02463255 2.34786708 11.02463255 2 13 C0.68 13.33 -0.64 13.66 -2 14 C-2.33 12.02 -2.66 10.04 -3 8 C-2.34 8 -1.68 8 -1 8 C-0.67 5.36 -0.34 2.72 0 0 Z " fill="#A00605" transform="translate(218,243)"/>
<path d="M0 0 C1.98 0 3.96 0 6 0 C5.79375 0.94875 5.5875 1.8975 5.375 2.875 C5.25125 3.90625 5.1275 4.9375 5 6 C5.66 6.66 6.32 7.32 7 8 C7 8.99 7 9.98 7 11 C4.03 11 1.06 11 -2 11 C-2.19622241 6.78121808 -1.80230168 3.82989106 0 0 Z " fill="#194882" transform="translate(77,293)"/>
<path d="M0 0 C2.31 0 4.62 0 7 0 C8.125 5.75 8.125 5.75 7 8 C6.34 8 5.68 8 5 8 C5 8.66 5 9.32 5 10 C1.05272412 10.17942163 -1.5980513 10.09350689 -5 8 C-5 7.01 -5 6.02 -5 5 C-2.03 5.33 0.94 5.66 4 6 C3.67 4.35 3.34 2.7 3 1 C2.01 0.67 1.02 0.34 0 0 Z " fill="#1A437B" transform="translate(185,298)"/>
<path d="M0 0 C3.63 0 7.26 0 11 0 C7.375 7.75 7.375 7.75 4 10 C1.2027092 7.93243723 0.97307727 6.85559629 0.3125 3.3125 C0.209375 2.219375 0.10625 1.12625 0 0 Z " fill="#991011" transform="translate(373,229)"/>
<path d="M0 0 C2.6855594 2.6855594 3.06049974 5.37621328 4 9 C3.01 9 2.02 9 1 9 C0.34 9.66 -0.32 10.32 -1 11 C-1.66 10.67 -2.32 10.34 -3 10 C-3.66 12.97 -4.32 15.94 -5 19 C-5.66 19 -6.32 19 -7 19 C-7 19.99 -7 20.98 -7 22 C-7.66 22 -8.32 22 -9 22 C-2.97560976 2.97560976 -2.97560976 2.97560976 0 0 Z " fill="#931819" transform="translate(101,173)"/>
<path d="M0 0 C0.66 0.33 1.32 0.66 2 1 C2 1.99 2 2.98 2 4 C-0.31 4 -2.62 4 -5 4 C-5 4.99 -5 5.98 -5 7 C-4.01 7.33 -3.02 7.66 -2 8 C-2.33 8.99 -2.66 9.98 -3 11 C-5.4375 10.375 -5.4375 10.375 -8 9 C-9 6.0625 -9 6.0625 -9 3 C-6.8753552 -0.74937318 -3.97641963 -0.33841869 0 0 Z " fill="#22487D" transform="translate(206,289)"/>
<path d="M0 0 C3.72450216 2.10515339 5.6795921 3.24267224 7.375 7.25 C7.58125 8.1575 7.7875 9.065 8 10 C8.66 10 9.32 10 10 10 C10.33 8.35 10.66 6.7 11 5 C11.33 5 11.66 5 12 5 C12.36923077 10.53846154 12.36923077 10.53846154 10.5 12.875 C10.005 13.24625 9.51 13.6175 9 14 C8.67 13.34 8.34 12.68 8 12 C5.73940746 10.08719093 3.6538733 8.32693665 1 7 C0.67 8.32 0.34 9.64 0 11 C-1.28571429 3.57142857 -1.28571429 3.57142857 0 0 Z " fill="#9F0604" transform="translate(354,240)"/>
<path d="M0 0 C0.33 0 0.66 0 1 0 C0.67 2.31 0.34 4.62 0 7 C0.66 7 1.32 7 2 7 C2 8.98 2 10.96 2 13 C1.01 11.68 0.02 10.36 -1 9 C-1.33 9.99 -1.66 10.98 -2 12 C-1.34 12.33 -0.68 12.66 0 13 C2.01131706 17.46549293 3.47727616 22.06814638 3 27 C-0.92992129 23.07007871 -2.301753 17.13838144 -4 11.9375 C-4 7.44931993 -2.03578403 3.93177173 0 0 Z " fill="#961A1A" transform="translate(76,231)"/>
<path d="M0 0 C1.32 0 2.64 0 4 0 C4 4.95 4 9.9 4 15 C3.01 15.33 2.02 15.66 1 16 C-0.50156874 12.99686252 -0.09281204 10.20932478 -0.0625 6.875 C-0.05347656 5.59367187 -0.04445313 4.31234375 -0.03515625 2.9921875 C-0.02355469 2.00476563 -0.01195313 1.01734375 0 0 Z " fill="#20477B" transform="translate(104,289)"/>
<path d="M0 0 C3.875 0.875 3.875 0.875 5 2 C6.85772162 1.91015699 8.71247985 1.75388139 10.5625 1.5625 C11.57441406 1.46066406 12.58632812 1.35882813 13.62890625 1.25390625 C14.41136719 1.17011719 15.19382813 1.08632813 16 1 C15 4 15 4 12 6 C9.58984375 6.30078125 9.58984375 6.30078125 6.9375 6.3125 C6.05964844 6.32925781 5.18179688 6.34601563 4.27734375 6.36328125 C3.15005859 6.18345703 3.15005859 6.18345703 2 6 C0 3 0 3 0 0 Z " fill="#1D4579" transform="translate(225,301)"/>
<path d="M0 0 C1.32 0.33 2.64 0.66 4 1 C3.67 1.66 3.34 2.32 3 3 C1.71312989 6.86061033 1.86242382 9.94150283 2 14 C5.3 13.34 8.6 12.68 12 12 C12 12.99 12 13.98 12 15 C9.47524538 16.26237731 7.68799534 16.09856404 4.875 16.0625 C3.26625 16.041875 1.6575 16.02125 0 16 C0 10.72 0 5.44 0 0 Z " fill="#133B72" transform="translate(74,292)"/>
<path d="M0 0 C0.66 0 1.32 0 2 0 C1.01 3.3 0.02 6.6 -1 10 C3.29 10 7.58 10 12 10 C12.33 9.01 12.66 8.02 13 7 C13 8.32 13 9.64 13 11 C8.05 11 3.1 11 -2 11 C-2.33 11.66 -2.66 12.32 -3 13 C-4.32 12.67 -5.64 12.34 -7 12 C-7.33 12.99 -7.66 13.98 -8 15 C-8 13.68 -8 12.36 -8 11 C-6.68 10.67 -5.36 10.34 -4 10 C-3.67 8.35 -3.34 6.7 -3 5 C-2.34 5 -1.68 5 -1 5 C-0.67 3.35 -0.34 1.7 0 0 Z " fill="#AA2629" transform="translate(224,246)"/>
<path d="M0 0 C0.99 0 1.98 0 3 0 C3 5.94 3 11.88 3 18 C1.68 18 0.36 18 -1 18 C-0.835 17.2575 -0.67 16.515 -0.5 15.75 C0.20054587 10.49590599 0.07707499 5.29248251 0 0 Z " fill="#0E3C75" transform="translate(155,289)"/>
<path d="M0 0 C0.99 0 1.98 0 3 0 C3 4.62 3 9.24 3 14 C1.68 14 0.36 14 -1 14 C-1.02694851 12.04174127 -1.04637218 10.08337774 -1.0625 8.125 C-1.07410156 7.03445313 -1.08570313 5.94390625 -1.09765625 4.8203125 C-1 2 -1 2 0 0 Z " fill="#103D74" transform="translate(349,294)"/>
<path d="M0 0 C0.99 0 1.98 0 3 0 C3.48076923 6.25 3.48076923 6.25 1.4375 9.4375 C-1.81870797 11.5248128 -4.20995016 11.2915423 -8 11 C-7 8 -7 8 -4.5625 6.625 C-1.55265042 4.7163149 -0.99604801 3.35034331 0 0 Z " fill="#1C467D" transform="translate(261,296)"/>
<path d="M0 0 C0.66 0 1.32 0 2 0 C2 0.66 2 1.32 2 2 C6.61507774 3.04214691 6.61507774 3.04214691 11 2 C11.33 3.98 11.66 5.96 12 8 C8.7 8 5.4 8 2 8 C1.34 5.36 0.68 2.72 0 0 Z " fill="#981B1E" transform="translate(328,265)"/>
<path d="M0 0 C3.18970738 3.18970738 4.45161227 7.3204469 6.1875 11.4375 C6.56841797 12.30955078 6.94933594 13.18160156 7.34179688 14.08007812 C7.69693359 14.91861328 8.05207031 15.75714844 8.41796875 16.62109375 C8.74563232 17.3886499 9.0732959 18.15620605 9.41088867 18.94702148 C10 21 10 21 9 24 C5 17.25 5 17.25 5 15 C4.01 15 3.02 15 2 15 C1.66223316 13.2508503 1.32996329 11.50063855 1 9.75 C0.814375 8.77546875 0.62875 7.8009375 0.4375 6.796875 C0 4 0 4 0 0 Z " fill="#971D1D" transform="translate(183,223)"/>
<path d="M0 0 C0.33 0 0.66 0 1 0 C1 5.94 1 11.88 1 18 C2.32 18 3.64 18 5 18 C4.67 17.01 4.34 16.02 4 15 C6.64 15 9.28 15 12 15 C12 16.32 12 17.64 12 19 C8.04 19 4.08 19 0 19 C0 12.73 0 6.46 0 0 Z " fill="#436594" transform="translate(164,289)"/>
<path d="M0 0 C1.32 0 2.64 0 4 0 C3.67 5.28 3.34 10.56 3 16 C2.01 16 1.02 16 0 16 C0 10.72 0 5.44 0 0 Z " fill="#123D78" transform="translate(141,292)"/>
<path d="M0 0 C0.33 0.66 0.66 1.32 1 2 C5.29 2 9.58 2 14 2 C14.33 1.34 14.66 0.68 15 0 C15 0.99 15 1.98 15 3 C14.01 3.495 14.01 3.495 13 4 C13.66 4.66 14.32 5.32 15 6 C13.06280622 6.05406122 11.12518079 6.09282025 9.1875 6.125 C8.10855469 6.14820313 7.02960938 6.17140625 5.91796875 6.1953125 C3 6 3 6 0 4 C0 2.68 0 1.36 0 0 Z " fill="#AD2426" transform="translate(401,254)"/>
<path d="M0 0 C2.35418843 2.35418843 2.99608031 4.25583671 4.125 7.375 C4.47820312 8.33148438 4.83140625 9.28796875 5.1953125 10.2734375 C6 13 6 13 6 17 C3.03 17 0.06 17 -3 17 C-1.68 16.34 -0.36 15.68 1 15 C0.67 13.68 0.34 12.36 0 11 C0.99 11.33 1.98 11.66 3 12 C2.67 11.67 2.34 11.34 2 11 C0.7548144 7.11795078 0 4.10069215 0 0 Z " fill="#972223" transform="translate(246,256)"/>
<path d="M0 0 C0.99 0 1.98 0 3 0 C3 6.27 3 12.54 3 19 C1.68 18.67 0.36 18.34 -1 18 C-0.01 18 0.98 18 2 18 C1.505 16.6078125 1.505 16.6078125 1 15.1875 C-0.45989695 10.19095127 -0.16784802 5.1566642 0 0 Z " fill="#183C6F" transform="translate(284,289)"/>
<path d="M0 0 C3.63 0 7.26 0 11 0 C11 1.32 11 2.64 11 4 C7.37 4.33 3.74 4.66 0 5 C0 3.35 0 1.7 0 0 Z " fill="#274C7E" transform="translate(165,289)"/>
<path d="M0 0 C0.33 0.66 0.66 1.32 1 2 C0.67 2.99 0.34 3.98 0 5 C8.58 5 17.16 5 26 5 C26 3.68 26 2.36 26 1 C26.99 1 27.98 1 29 1 C28.34 2.65 27.68 4.3 27 6 C17.1 6 7.2 6 -3 6 C-2.01 4.02 -1.02 2.04 0 0 Z " fill="#89171A" transform="translate(117,268)"/>
<path d="M0 0 C0.99 0.33 1.98 0.66 3 1 C2.125 5.75 2.125 5.75 1 8 C1.66 8 2.32 8 3 8 C2.67 8.99 2.34 9.98 2 11 C1.67 10.67 1.34 10.34 1 10 C-0.89213369 12.38573379 -2.02391783 14.07175348 -3 17 C-3.66 17 -4.32 17 -5 17 C-3.83348574 11.07136283 -2.24480642 5.61201606 0 0 Z " fill="#A52425" transform="translate(220,234)"/>
<path d="M0 0 C4.43601966 3.51822249 5.52033129 7.75390186 7 13 C6.01 12.67 5.02 12.34 4 12 C2.8125 9.4375 2.8125 9.4375 2 7 C0.68 7.33 -0.64 7.66 -2 8 C-2.33 6.35 -2.66 4.7 -3 3 C-2.34 3 -1.68 3 -1 3 C-0.67 2.01 -0.34 1.02 0 0 Z " fill="#9D1212" transform="translate(165,183)"/>
<path d="M0 0 C0.99 0 1.98 0 3 0 C3 5.28 3 10.56 3 16 C2.01 16 1.02 16 0 16 C0 10.72 0 5.44 0 0 Z " fill="#0C3B7D" transform="translate(270,292)"/>
<path d="M0 0 C0.99 0 1.98 0 3 0 C3 4.62 3 9.24 3 14 C2.34 14 1.68 14 1 14 C0.67 14.99 0.34 15.98 0 17 C0 11.39 0 5.78 0 0 Z " fill="#123771" transform="translate(332,290)"/>
<path d="M0 0 C3.5625 0.125 3.5625 0.125 5.5625 1.125 C5.5625 2.115 5.5625 3.105 5.5625 4.125 C2.23715243 5.23344919 -0.05932575 4.96954356 -3.4375 4.125 C-3.4375 4.785 -3.4375 5.445 -3.4375 6.125 C-4.0975 6.125 -4.7575 6.125 -5.4375 6.125 C-4.36664125 0.15878695 -4.36664125 0.15878695 0 0 Z " fill="#1F4580" transform="translate(119.4375,288.875)"/>
<path d="M0 0 C2.475 0.99 2.475 0.99 5 2 C5.33 1.34 5.66 0.68 6 0 C6 0.99 6 1.98 6 3 C5.01 3.66 4.02 4.32 3 5 C1.80767387 7.05003955 1.80767387 7.05003955 1 9 C0.01 9 -0.98 9 -2 9 C-3.68798827 10.43750191 -3.68798827 10.43750191 -5 12 C-4.54738642 10.56068883 -4.08767021 9.12361001 -3.625 7.6875 C-3.24214844 6.48673828 -3.24214844 6.48673828 -2.8515625 5.26171875 C-2 3 -2 3 0 0 Z " fill="#9D1313" transform="translate(156,175)"/>
<path d="M0 0 C0.33 0.99 0.66 1.98 1 3 C1.66 3 2.32 3 3 3 C3 4.65 3 6.3 3 8 C2.01 8 1.02 8 0 8 C-1.56406528 8.15127402 -3.12659252 8.31902522 -4.6875 8.5 C-5.49574219 8.5928125 -6.30398437 8.685625 -7.13671875 8.78125 C-8.05904297 8.88953125 -8.05904297 8.88953125 -9 9 C-8.67 7.02 -8.34 5.04 -8 3 C-7.67 4.32 -7.34 5.64 -7 7 C-5.02 7 -3.04 7 -1 7 C-1.33 5.02 -1.66 3.04 -2 1 C-1.34 0.67 -0.68 0.34 0 0 Z " fill="#2D578C" transform="translate(85,297)"/>
<path d="M0 0 C0.66 0 1.32 0 2 0 C2.33 0.99 2.66 1.98 3 3 C3.66 2.01 4.32 1.02 5 0 C5.66 0 6.32 0 7 0 C7.32613618 4.67461851 6.70582788 7.16674383 4 11 C1.55160412 7.32740617 0 4.45351799 0 0 Z " fill="#961517" transform="translate(83,266)"/>
<path d="M0 0 C0.33 0 0.66 0 1 0 C1 1.65 1 3.3 1 5 C1.66 5.33 2.32 5.66 3 6 C0.19084526 7.40457737 -1.88810534 7.24895157 -5 7 C-7.375 5.625 -7.375 5.625 -9 4 C-9 3.34 -9 2.68 -9 2 C-6.03 2.33 -3.06 2.66 0 3 C0 2.01 0 1.02 0 0 Z " fill="#375D93" transform="translate(426,301)"/>
<path d="M0 0 C0.71079691 2.78028525 1.34163683 5.56804128 1.9375 8.375 C2.73641401 12.00915771 3.74126719 15.49353002 5 19 C4.34 19.33 3.68 19.66 3 20 C1.9955866 17.7101766 0.99632388 15.4183401 0 13.125 C-0.28617188 12.47402344 -0.57234375 11.82304687 -0.8671875 11.15234375 C-3 6.2265625 -3 6.2265625 -3 4 C-2.34 3.67 -1.68 3.34 -1 3 C-0.67 2.01 -0.34 1.02 0 0 Z " fill="#931B1B" transform="translate(167,243)"/>
<path d="M0 0 C4.62 0 9.24 0 14 0 C15.91539047 4.96260257 17.60961435 9.86626838 19 15 C18.01 14.67 17.02 14.34 16 14 C15.87625 13.195625 15.7525 12.39125 15.625 11.5625 C15.41875 10.716875 15.2125 9.87125 15 9 C14.34 8.67 13.68 8.34 13 8 C13 5.69 13 3.38 13 1 C8.71 1 4.42 1 0 1 C0 0.67 0 0.34 0 0 Z " fill="#8E2120" transform="translate(402,229)"/>
<path d="M0 0 C2 2 2 2 4 5 C4.66 5.66 5.32 6.32 6 7 C6.66 6.67 7.32 6.34 8 6 C6.62845496 8.95409701 5.01136276 11.44008376 3 14 C2.34 11.69 1.68 9.38 1 7 C0.34 7.66 -0.32 8.32 -1 9 C-1.625 6.1875 -1.625 6.1875 -2 3 C-1.34 2.01 -0.68 1.02 0 0 Z " fill="#AA2225" transform="translate(372,231)"/>
<path d="M0 0 C4.62 0 9.24 0 14 0 C14 1.32 14 2.64 14 4 C11.36 3.67 8.72 3.34 6 3 C6 2.34 6 1.68 6 1 C4.35 1 2.7 1 1 1 C1 1.66 1 2.32 1 3 C2.98 3.495 2.98 3.495 5 4 C3.35 4 1.7 4 0 4 C0 2.68 0 1.36 0 0 Z " fill="#2E4E77" transform="translate(401,289)"/>
<path d="M0 0 C5.28 0 10.56 0 16 0 C20 12.75 20 12.75 20 15 C19.01 15 18.02 15 17 15 C16.34 10.38 15.68 5.76 15 1 C10.05 1 5.1 1 0 1 C0 0.67 0 0.34 0 0 Z " fill="#95292C" transform="translate(310,229)"/>
<path d="M0 0 C4.21622769 0.42876892 5.77044336 1.36954771 8.6875 4.375 C8.6875 5.035 8.6875 5.695 8.6875 6.375 C5.7175 5.88 5.7175 5.88 2.6875 5.375 C2.6875 4.715 2.6875 4.055 2.6875 3.375 C0.0475 3.045 -2.5925 2.715 -5.3125 2.375 C-3.3125 0.375 -3.3125 0.375 0 0 Z " fill="#2F5584" transform="translate(232.3125,288.625)"/>
<path d="M0 0 C0.66 0 1.32 0 2 0 C1.31282934 3.89396706 0.27666659 7.17000022 -1 11 C3.29 11 7.58 11 12 11 C12.33 10.34 12.66 9.68 13 9 C13.33 9.99 13.66 10.98 14 12 C8.72 12 3.44 12 -2 12 C-3.18297127 6.08514363 -2.50563209 5.11148947 0 0 Z " fill="#A83232" transform="translate(312,245)"/>
<path d="M0 0 C2 2 2 2 2 5 C2.99 5.33 3.98 5.66 5 6 C4.67 7.65 4.34 9.3 4 11 C1.36 11 -1.28 11 -4 11 C-4 10.67 -4 10.34 -4 10 C-1.36 9.67 1.28 9.34 4 9 C2.02 8.34 0.04 7.68 -2 7 C-1.125 2.25 -1.125 2.25 0 0 Z " fill="#4F74A5" transform="translate(367,294)"/>
<path d="M0 0 C0.33 0.66 0.66 1.32 1 2 C1.99 2 2.98 2 4 2 C4.66 4.64 5.32 7.28 6 10 C4.68 9.67 3.36 9.34 2 9 C1.01 9.33 0.02 9.66 -1 10 C-2.31223496 6.06329512 -1.24296256 3.87511856 0 0 Z " fill="#A41516" transform="translate(332,256)"/>
<path d="M0 0 C0.66 0.33 1.32 0.66 2 1 C2 1.66 2 2.32 2 3 C2.66 3 3.32 3 4 3 C4.22151549 4.79008467 4.42682213 6.58218162 4.625 8.375 C4.74101562 9.37273437 4.85703125 10.37046875 4.9765625 11.3984375 C4.98429687 12.25695312 4.99203125 13.11546875 5 14 C4.34 14.66 3.68 15.32 3 16 C2.29954544 14.08802961 1.615081 12.17019565 0.9375 10.25 C0.55464844 9.18265625 0.17179687 8.1153125 -0.22265625 7.015625 C-0.98010011 4.07719958 -1.07151741 2.77651052 0 0 Z " fill="#9D1719" transform="translate(320,237)"/>
<path d="M0 0 C0.99 0 1.98 0 3 0 C3.10251672 5.12583611 3.03590199 9.94997778 2 15 C1.34 15 0.68 15 0 15 C0 10.05 0 5.1 0 0 Z " fill="#0B3A7A" transform="translate(394,289)"/>
<path d="M0 0 C0.99 0 1.98 0 3 0 C2.34 1.98 1.68 3.96 1 6 C0.34 6 -0.32 6 -1 6 C-0.773125 6.763125 -0.54625 7.52625 -0.3125 8.3125 C0 11 0 11 -1.3125 12.8125 C-3 14 -3 14 -5 14 C-4.54636829 12.41531323 -4.08688548 10.83230076 -3.625 9.25 C-3.36976562 8.36828125 -3.11453125 7.4865625 -2.8515625 6.578125 C-2.0790066 4.23919428 -1.16374324 2.16557438 0 0 Z " fill="#961716" transform="translate(90,198)"/>
<path d="M0 0 C0.99 0 1.98 0 3 0 C3 4.29 3 8.58 3 13 C2.01 12.67 1.02 12.34 0 12 C0 8.04 0 4.08 0 0 Z " fill="#103D73" transform="translate(93,289)"/>
<path d="M0 0 C2 2 2 2 2.125 5.625 C2.08375 6.73875 2.0425 7.8525 2 9 C0.02 9.99 -1.96 10.98 -4 12 C-4 7.16722534 -3.19658087 7.19658087 0 4 C0 2.68 0 1.36 0 0 Z " fill="#A30505" transform="translate(373,237)"/>
<path d="M0 0 C1.32 0 2.64 0 4 0 C4 6.27 4 12.54 4 19 C2.68 19 1.36 19 0 19 C0.495 17.515 0.495 17.515 1 16 C1 16.66 1 17.32 1 18 C1.66 18 2.32 18 3 18 C2.85795259 16.41632253 2.71119847 14.83306682 2.5625 13.25 C2.48128906 12.36828125 2.40007812 11.4865625 2.31640625 10.578125 C2.03687848 8.30049129 1.6090145 6.20767757 1 4 C0.66666667 2.66666667 0.33333333 1.33333333 0 0 Z " fill="#294977" transform="translate(131,289)"/>
<path d="M0 0 C0.33 0 0.66 0 1 0 C1.22181406 2.43695715 1.42791119 4.873526 1.625 7.3125 C1.68945312 8.00279297 1.75390625 8.69308594 1.8203125 9.40429688 C2.11802847 13.2559972 2.20763723 14.68854416 0 18 C1.32 18.33 2.64 18.66 4 19 C2.35 19 0.7 19 -1 19 C-1.99 17.02 -2.98 15.04 -4 13 C-3.34 13 -2.68 13 -2 13 C-2 12.01 -2 11.02 -2 10 C-1.34 10 -0.68 10 0 10 C0 6.7 0 3.4 0 0 Z " fill="#3F6495" transform="translate(154,289)"/>
<path d="M0 0 C0.66 0 1.32 0 2 0 C2 0.99 2 1.98 2 3 C3.98 3.66 5.96 4.32 8 5 C7.01 5.495 7.01 5.495 6 6 C6 6.66 6 7.32 6 8 C3.69 7.34 1.38 6.68 -1 6 C-1.33 4.68 -1.66 3.36 -2 2 C-1.34 2 -0.68 2 0 2 C0 1.34 0 0.68 0 0 Z " fill="#254F85" transform="translate(116,293)"/>
<path d="M0 0 C0.99 0.495 0.99 0.495 2 1 C2.0825 1.94875 2.165 2.8975 2.25 3.875 C2.4975 4.90625 2.745 5.9375 3 7 C5.95071844 8.93469849 5.95071844 8.93469849 9 10 C9 10.99 9 11.98 9 13 C6.02247554 12.66916395 4.18625279 12.12584648 1.6875 10.4375 C-0.78719807 6.86293612 -0.28590207 4.28853105 0 0 Z " fill="#E6F3FB" transform="translate(196,291)"/>
<path d="M0 0 C2 3 2 3 1.625 5.6875 C1.41875 6.450625 1.2125 7.21375 1 8 C3.97 8.495 3.97 8.495 7 9 C7 9.33 7 9.66 7 10 C3.7 10 0.4 10 -3 10 C-2.39009109 6.44219804 -1.4216319 3.3171411 0 0 Z " fill="#931F1F" transform="translate(298,263)"/>
<path d="M0 0 C0.33 0 0.66 0 1 0 C1 1.98 1 3.96 1 6 C-1.97 6 -4.94 6 -8 6 C-7.67 4.35 -7.34 2.7 -7 1 C-6.67 1.66 -6.34 2.32 -6 3 C-5.38125 2.649375 -4.7625 2.29875 -4.125 1.9375 C-3.42375 1.628125 -2.7225 1.31875 -2 1 C-1.34 1.33 -0.68 1.66 0 2 C0 1.34 0 0.68 0 0 Z " fill="#931011" transform="translate(395,267)"/>
<path d="M0 0 C0.33 0 0.66 0 1 0 C1 2.97 1 5.94 1 9 C-0.32 9.33 -1.64 9.66 -3 10 C-2.67 10.99 -2.34 11.98 -2 13 C-2.99 14.485 -2.99 14.485 -4 16 C-4.66 16 -5.32 16 -6 16 C-4.25192871 10.53262809 -2.34205919 5.24175152 0 0 Z " fill="#9A191C" transform="translate(147,195)"/>
<path d="M0 0 C0.66 0.33 1.32 0.66 2 1 C2.75 3.875 2.75 3.875 3 7 C2.01 8.485 2.01 8.485 1 10 C0.34 9.34 -0.32 8.68 -1 8 C-1.66 9.65 -2.32 11.3 -3 13 C-4.61363928 9.77272143 -3.08456242 7.31076949 -2 4 C-1.37530495 2.64649406 -0.7283669 1.30065517 0 0 Z " fill="#F6D5D5" transform="translate(317,237)"/>
<path d="M0 0 C6.875 3.625 6.875 3.625 8 7 C2.375 7.25 2.375 7.25 -1 5 C-1 4.34 -1 3.68 -1 3 C-1.66 3 -2.32 3 -3 3 C-2.67 2.34 -2.34 1.68 -2 1 C-1.34 1.33 -0.68 1.66 0 2 C0 1.34 0 0.68 0 0 Z " fill="#34598C" transform="translate(249,301)"/>
<path d="M0 0 C4.55555556 1.55555556 4.55555556 1.55555556 6 3 C6.04080783 4.99958364 6.04254356 7.00045254 6 9 C5.34 8.67 4.68 8.34 4 8 C4.33 7.01 4.66 6.02 5 5 C3.02 5.99 3.02 5.99 1 7 C1 6.01 1 5.02 1 4 C0.34 4 -0.32 4 -1 4 C-1.33 3.01 -1.66 2.02 -2 1 C-1.34 0.67 -0.68 0.34 0 0 Z " fill="#365A8C" transform="translate(204,297)"/>
<path d="M0 0 C2.96404505 2.80804268 5.44499019 5.18315774 7 9 C3 9 3 9 0.6875 7.3125 C-1 5 -1 5 -0.75 2.25 C-0.5025 1.5075 -0.255 0.765 0 0 Z " fill="#2B5285" transform="translate(385,291)"/>
<path d="M0 0 C1.99097846 2.98646769 2.94124926 5.59687262 4 9 C4.33 9 4.66 9 5 9 C5.33 11.97 5.66 14.94 6 18 C3.51708991 14.98197997 2.08659645 12.10316563 0.75 8.4375 C0.39421875 7.48746094 0.0384375 6.53742188 -0.328125 5.55859375 C-1 3 -1 3 0 0 Z " fill="#254372" transform="translate(102,240)"/>
<path d="M0 0 C0.33 1.32 0.66 2.64 1 4 C0.01 4.495 0.01 4.495 -1 5 C-1.70710678 6.64991582 -2.36562656 8.3207762 -3 10 C-3.98482022 12.00751815 -4.98152514 14.00934459 -6 16 C-7.60031344 12.79937313 -6.03173691 10.27728194 -5 7 C-4.34 7 -3.68 7 -3 7 C-3.33 5.02 -3.66 3.04 -4 1 C-2.68 1.33 -1.36 1.66 0 2 C0 1.34 0 0.68 0 0 Z " fill="#483159" transform="translate(130,235)"/>
<path d="M0 0 C0.66 0 1.32 0 2 0 C4 2 4 2 4.5 4.0625 C4.665 4.701875 4.83 5.34125 5 6 C5.66 6.33 6.32 6.66 7 7 C6.67 9.31 6.34 11.62 6 14 C3.47524538 11.47524538 2.95692129 9.26502003 1.875 5.875 C1.52179688 4.77929688 1.16859375 3.68359375 0.8046875 2.5546875 C0.53914063 1.71164063 0.27359375 0.86859375 0 0 Z " fill="#A32526" transform="translate(408,236)"/>
<path d="M0 0 C0.99 0 1.98 0 3 0 C3 2.97 3 5.94 3 9 C1.68 8.34 0.36 7.68 -1 7 C-1.04254356 5.00045254 -1.04080783 2.99958364 -1 1 C-0.67 0.67 -0.34 0.34 0 0 Z " fill="#254B7F" transform="translate(246,294)"/>
<path d="M0 0 C0.99 0 1.98 0 3 0 C3 4.29 3 8.58 3 13 C2.34 13 1.68 13 1 13 C0.67 8.71 0.34 4.42 0 0 Z " fill="#123C74" transform="translate(322,289)"/>
<path d="M0 0 C0 0.99 0 1.98 0 3 C-2.64 2.67 -5.28 2.34 -8 2 C-8 2.99 -8 3.98 -8 5 C-8.66 5 -9.32 5 -10 5 C-9.625 2.5625 -9.625 2.5625 -9 0 C-5.93109813 -1.53445094 -3.29905734 -0.54984289 0 0 Z " fill="#1D437A" transform="translate(191,290)"/>
<path d="M0 0 C0 1.32 0 2.64 0 4 C-5.75 4.125 -5.75 4.125 -8 3 C-8 2.34 -8 1.68 -8 1 C-5.29120665 -0.35439668 -2.99066732 -0.06501451 0 0 Z " fill="#274E82" transform="translate(320,304)"/>
<path d="M0 0 C0.99 0 1.98 0 3 0 C3 0.66 3 1.32 3 2 C4.65 2 6.3 2 8 2 C7.34 2.66 6.68 3.32 6 4 C6.66 4.66 7.32 5.32 8 6 C4.625 5.75 4.625 5.75 1 5 C-0.4375 2.9375 -0.4375 2.9375 -1 1 C-0.67 0.67 -0.34 0.34 0 0 Z " fill="#3A5C88" transform="translate(293,302)"/>
<path d="M0 0 C1.32 0.33 2.64 0.66 4 1 C3.67 2.98 3.34 4.96 3 7 C0.69 7 -1.62 7 -4 7 C-2.68 6.34 -1.36 5.68 0 5 C0 3.35 0 1.7 0 0 Z " fill="#173F75" transform="translate(301,300)"/>
<path d="M0 0 C0.33 0 0.66 0 1 0 C1 1.65 1 3.3 1 5 C1.99 5 2.98 5 4 5 C3.67 6.32 3.34 7.64 3 9 C2.34 9 1.68 9 1 9 C1 8.34 1 7.68 1 7 C0.01 7.33 -0.98 7.66 -2 8 C-2 7.34 -2 6.68 -2 6 C-2.66 6 -3.32 6 -4 6 C-4 5.34 -4 4.68 -4 4 C-4.66 3.67 -5.32 3.34 -6 3 C-3.03 3.495 -3.03 3.495 0 4 C0 2.68 0 1.36 0 0 Z " fill="#9E0607" transform="translate(334,261)"/>
<path d="M0 0 C3 3.75 3 3.75 3 6 C3.66 6 4.32 6 5 6 C5.33 4.35 5.66 2.7 6 1 C6.33 1 6.66 1 7 1 C7.36923077 6.53846154 7.36923077 6.53846154 5.5 8.875 C4.7575 9.431875 4.7575 9.431875 4 10 C3.67 9.34 3.34 8.68 3 8 C2.29875 7.195625 1.5975 6.39125 0.875 5.5625 C0.25625 4.716875 -0.3625 3.87125 -1 3 C-0.67 2.01 -0.34 1.02 0 0 Z " fill="#9F2426" transform="translate(359,244)"/>
<path d="M0 0 C1.33345325 2.66690651 0.58691168 4.22606517 -0.25390625 6.98046875 C-1.54138595 10.46542688 -3.24946705 13.72837288 -5 17 C-5.66 17 -6.32 17 -7 17 C-5.1668733 11.00067626 -2.92678249 5.55079437 0 0 Z " fill="#FCE9E8" transform="translate(101,244)"/>
<path d="M0 0 C2.19636905 2.19636905 3.58511552 4.23760649 5 7 C4 10 4 10 2 11 C0.68 7.7 -0.64 4.4 -2 1 C-1.34 0.67 -0.68 0.34 0 0 Z " fill="#A11617" transform="translate(161,235)"/>
<path d="M0 0 C0.33 0 0.66 0 1 0 C0.52877252 6.9113364 -2.20636006 12.72204161 -5 19 C-6.1233655 15.6299035 -5.89663584 14.96507695 -4.75 11.75 C-4.47027344 10.96238281 -4.19054687 10.17476562 -3.90234375 9.36328125 C-2.69299394 6.19593652 -1.38306813 3.09543819 0 0 Z " fill="#602041" transform="translate(109,221)"/>
<path d="M0 0 C2.64 0.99 5.28 1.98 8 3 C8 3.99 8 4.98 8 6 C5.36 5.67 2.72 5.34 0 5 C0 3.35 0 1.7 0 0 Z " fill="#D0DFEF" transform="translate(181,298)"/>
<path d="M0 0 C2.46278801 2.46278801 2.99771255 4.70676982 4 8 C2.35 8.33 0.7 8.66 -1 9 C-1.33 6.36 -1.66 3.72 -2 1 C-1.34 0.67 -0.68 0.34 0 0 Z " fill="#A31417" transform="translate(172,197)"/>
<path d="M0 0 C0.66 0 1.32 0 2 0 C1.67 2.64 1.34 5.28 1 8 C-1.31 7.34 -3.62 6.68 -6 6 C-6 5.01 -6 4.02 -6 3 C-4.02 3 -2.04 3 0 3 C0 2.01 0 1.02 0 0 Z " fill="#D5E2F3" transform="translate(428,290)"/>
<path d="M0 0 C1.5625 1.625 1.5625 1.625 3 4 C2.6875 7.25 2.6875 7.25 2 10 C1.01 10 0.02 10 -1 10 C-1.125 2.25 -1.125 2.25 0 0 Z " fill="#A2181A" transform="translate(421,246)"/>
<path d="M0 0 C0.66 0 1.32 0 2 0 C3.83691257 3.78187881 4.15837626 5.94568308 3 10 C2.34 9.34 1.68 8.68 1 8 C0.01 8.495 0.01 8.495 -1 9 C-0.67 6.03 -0.34 3.06 0 0 Z " fill="#9F1717" transform="translate(107,189)"/>
<path d="M0 0 C2.475 0.495 2.475 0.495 5 1 C5 2.98 5 4.96 5 7 C4.01 7.33 3.02 7.66 2 8 C1.34 5.36 0.68 2.72 0 0 Z " fill="#173D79" transform="translate(425,298)"/>
<path d="M0 0 C0.94875 0.165 1.8975 0.33 2.875 0.5 C5.80168901 1.0526635 5.80168901 1.0526635 8 1 C8 2.32 8 3.64 8 5 C2.25 5.125 2.25 5.125 0 4 C0 2.68 0 1.36 0 0 Z " fill="#9C0806" transform="translate(421,267)"/>
<path d="M0 0 C0.66 0 1.32 0 2 0 C2 3.3 2 6.6 2 10 C1.01 10.33 0.02 10.66 -1 11 C-1.33 9.68 -1.66 8.36 -2 7 C-1.34 7 -0.68 7 0 7 C0 4.69 0 2.38 0 0 Z " fill="#0E3B78" transform="translate(106,294)"/>
<path d="M0 0 C0.99 0 1.98 0 3 0 C5.28571429 8.42857143 5.28571429 8.42857143 5 13 C2.94876752 10.94876752 2.35852882 9.72994937 1.375 7.0625 C0.98441406 6.02802734 0.98441406 6.02802734 0.5859375 4.97265625 C0 3 0 3 0 0 Z " fill="#931013" transform="translate(74,245)"/>
<path d="M0 0 C2.6855594 2.6855594 3.06049974 5.37621328 4 9 C2.68 8.67 1.36 8.34 0 8 C0 8.66 0 9.32 0 10 C-0.66 10 -1.32 10 -2 10 C-1.34 6.7 -0.68 3.4 0 0 Z " fill="#454068" transform="translate(115,206)"/>
<path d="M0 0 C0.33 0.99 0.66 1.98 1 3 C-1 5 -1 5 -2.9453125 5.1953125 C-4.96354167 5.13020833 -6.98177083 5.06510417 -9 5 C-7.68 4.34 -6.36 3.68 -5 3 C-5.33 2.34 -5.66 1.68 -6 1 C-3.92446352 0.4465236 -2.15634036 0 0 0 Z " fill="#3B5E8F" transform="translate(105,303)"/>
<path d="M0 0 C2.64 0.33 5.28 0.66 8 1 C7.01 1.66 6.02 2.32 5 3 C6.32 3.66 7.64 4.32 9 5 C3.5 5.36666667 3.5 5.36666667 1.125 3.625 C0 2 0 2 0 0 Z " fill="#345583" transform="translate(113,303)"/>
<path d="M0 0 C1.61363928 3.22727857 0.08456242 5.68923051 -1 9 C-1.62469505 10.35350594 -2.2716331 11.69934483 -3 13 C-3.66 12.67 -4.32 12.34 -5 12 C-5 11.01 -5 10.02 -5 9 C-4.34 8.67 -3.68 8.34 -3 8 C-2.09656316 6.11736119 -2.09656316 6.11736119 -1.375 3.9375 C-1.11460938 3.20402344 -0.85421875 2.47054688 -0.5859375 1.71484375 C-0.39257812 1.14894531 -0.19921875 0.58304687 0 0 Z " fill="#3E2F5B" transform="translate(118,260)"/>
<path d="M0 0 C0.33 0 0.66 0 1 0 C0.67 2.31 0.34 4.62 0 7 C2.31 7.33 4.62 7.66 7 8 C7 8.33 7 8.66 7 9 C3.7 9 0.4 9 -3 9 C-2.01 6.03 -1.02 3.06 0 0 Z " fill="#8C2425" transform="translate(210,264)"/>
<path d="M0 0 C1.65 0 3.3 0 5 0 C4.25 5.75 4.25 5.75 2 8 C2 6.68 2 5.36 2 4 C1.34 3.67 0.68 3.34 0 3 C0 2.01 0 1.02 0 0 Z " fill="#9C1315" transform="translate(302,264)"/>
<path d="M0 0 C0.66 0 1.32 0 2 0 C1.34580901 5.06998019 -0.8546409 9.41990777 -3 14 C-4.25955231 10.22134307 -3.48087189 8.96588214 -2.0625 5.3125 C-1.68222656 4.31863281 -1.30195312 3.32476562 -0.91015625 2.30078125 C-0.60980469 1.54152344 -0.30945313 0.78226563 0 0 Z " fill="#FCE4E3" transform="translate(92,188)"/>
<path d="M0 0 C5.75 -0.125 5.75 -0.125 8 1 C8 1.66 8 2.32 8 3 C5.36 3 2.72 3 0 3 C0 2.01 0 1.02 0 0 Z " fill="#3A608E" transform="translate(200,305)"/>
<path d="M0 0 C2.475 0.495 2.475 0.495 5 1 C5 1.99 5 2.98 5 4 C6.65 4 8.3 4 10 4 C10 4.33 10 4.66 10 5 C6.05272412 5.17942163 3.4019487 5.09350689 0 3 C0 2.01 0 1.02 0 0 Z " fill="#385786" transform="translate(180,303)"/>
<path d="M0 0 C1.65 0 3.3 0 5 0 C5.33 1.32 5.66 2.64 6 4 C4.02 4 2.04 4 0 4 C0 2.68 0 1.36 0 0 Z " fill="#E4F0F8" transform="translate(78,300)"/>
<path d="M0 0 C2.6875 0.3125 2.6875 0.3125 5 1 C5 1.99 5 2.98 5 4 C2.36 3.67 -0.28 3.34 -3 3 C-1.8125 1.4375 -1.8125 1.4375 0 0 Z " fill="#CBDCEB" transform="translate(117,300)"/>
<path d="M0 0 C3.0625 0.125 3.0625 0.125 5.0625 1.125 C5.0625 2.115 5.0625 3.105 5.0625 4.125 C3.0825 4.125 1.1025 4.125 -0.9375 4.125 C-0.6075 3.465 -0.2775 2.805 0.0625 2.125 C-1.2575 1.795 -2.5775 1.465 -3.9375 1.125 C-2.9375 0.125 -2.9375 0.125 0 0 Z " fill="#345885" transform="translate(202.9375,288.875)"/>
<path d="M0 0 C0.33 0.99 0.66 1.98 1 3 C1.66 3 2.32 3 3 3 C3 2.34 3 1.68 3 1 C3.66 1 4.32 1 5 1 C5.66 3.31 6.32 5.62 7 8 C6.566875 7.525625 6.13375 7.05125 5.6875 6.5625 C3.97690387 4.76313043 3.97690387 4.76313043 1 4 C0.67 4.66 0.34 5.32 0 6 C-0.38218767 4.34385343 -0.71395102 2.67542976 -1 1 C-0.67 0.67 -0.34 0.34 0 0 Z " fill="#970D0E" transform="translate(194,258)"/>
<path d="M0 0 C0.66 0 1.32 0 2 0 C1.51171875 6.0546875 1.51171875 6.0546875 1 8 C0.01 8.66 -0.98 9.32 -2 10 C-2.17942163 6.05272412 -2.09350689 3.4019487 0 0 Z " fill="#AB0302" transform="translate(104,224)"/>
<path d="M0 0 C0.33 0 0.66 0 1 0 C1 4.29 1 8.58 1 13 C1.66 13 2.32 13 3 13 C3 13.99 3 14.98 3 16 C2.01 16 1.02 16 0 16 C0 10.72 0 5.44 0 0 Z " fill="#1A3E72" transform="translate(270,292)"/>
<path d="M0 0 C0.99 0.33 1.98 0.66 3 1 C4.48882438 5.07467725 5.26270217 8.66541415 5 13 C3.09610151 10.14415227 2.30537823 8.0688238 1.375 4.8125 C0.98441406 3.46091797 0.98441406 3.46091797 0.5859375 2.08203125 C0.39257812 1.39496094 0.19921875 0.70789063 0 0 Z " fill="#F0C9C6" transform="translate(241,240)"/>
<path d="M0 0 C2.475 0.99 2.475 0.99 5 2 C5 2.99 5 3.98 5 5 C2.69 4.67 0.38 4.34 -2 4 C-1.34 2.68 -0.68 1.36 0 0 Z " fill="#D7E6F3" transform="translate(421,299)"/>
<path d="M0 0 C2.31 0 4.62 0 7 0 C7 1.32 7 2.64 7 4 C5.02 4 3.04 4 1 4 C0.67 2.68 0.34 1.36 0 0 Z " fill="#416290" transform="translate(168,296)"/>
<path d="M0 0 C0.99 0.33 1.98 0.66 3 1 C2.37240135 3.92879371 1.41377341 6.36095629 0 9 C-0.66 9 -1.32 9 -2 9 C-1.34 6.03 -0.68 3.06 0 0 Z " fill="#A52525" transform="translate(305,242)"/>
<path d="M0 0 C3.10551666 3.10551666 3.81323934 4.89198233 5 9 C3.68 9 2.36 9 1 9 C0.67 6.03 0.34 3.06 0 0 Z " fill="#A32427" transform="translate(354,234)"/>
<path d="M0 0 C1.21386936 3.64160808 0.6674695 4.33165469 -0.9375 7.6875 C-1.31777344 8.49574219 -1.69804687 9.30398437 -2.08984375 10.13671875 C-2.39019531 10.75160156 -2.69054687 11.36648437 -3 12 C-3.5534764 9.92446352 -4 8.15634036 -4 6 C-3.34 6 -2.68 6 -2 6 C-1.855625 5.195625 -1.71125 4.39125 -1.5625 3.5625 C-1 1 -1 1 0 0 Z " fill="#FBE1E0" transform="translate(150,185)"/>
<path d="M0 0 C0.66 0 1.32 0 2 0 C2.33 1.98 2.66 3.96 3 6 C1.68 6 0.36 6 -1 6 C-0.67 4.02 -0.34 2.04 0 0 Z " fill="#224473" transform="translate(360,302)"/>
<path d="M0 0 C0 0.99 0 1.98 0 3 C-1.65 3 -3.3 3 -5 3 C-5 2.34 -5 1.68 -5 1 C-5.66 0.67 -6.32 0.34 -7 0 C-4.3333581 -1.33332095 -2.83319697 -0.67102033 0 0 Z " fill="#DBECF6" transform="translate(301,301)"/>
<path d="M0 0 C2 2 2 2 2.125 4.625 C2.08375 5.40875 2.0425 6.1925 2 7 C0.68 7 -0.64 7 -2 7 C-1.125 2.25 -1.125 2.25 0 0 Z " fill="#C9E2F2" transform="translate(367,294)"/>
<path d="M0 0 C2.97 0.495 2.97 0.495 6 1 C6.33 2.32 6.66 3.64 7 5 C4.69 4.34 2.38 3.68 0 3 C0 2.01 0 1.02 0 0 Z " fill="#DDF0F9" transform="translate(297,293)"/>
<path d="M0 0 C2.375 0.25 2.375 0.25 5 1 C6.3125 3.0625 6.3125 3.0625 7 5 C4.69 4.34 2.38 3.68 0 3 C0 2.01 0 1.02 0 0 Z " fill="#284B7F" transform="translate(270,289)"/>
<path d="M0 0 C1.65 0.33 3.3 0.66 5 1 C5 1.99 5 2.98 5 4 C3.1875 4.625 3.1875 4.625 1 5 C0.01 4.34 -0.98 3.68 -2 3 C-1.01 3 -0.02 3 1 3 C0.67 2.01 0.34 1.02 0 0 Z " fill="#4D6A97" transform="translate(120,289)"/>
<path d="M0 0 C1.61949011 2.57213134 2.04408751 3.67669159 1.625 6.75 C1.41875 7.4925 1.2125 8.235 1 9 C0.01 8.67 -0.98 8.34 -2 8 C-1.47731534 5.23723823 -0.89130413 2.6739124 0 0 Z " fill="#A41F20" transform="translate(309,231)"/>
<path d="M0 0 C1.32 0 2.64 0 4 0 C4.33 0.66 4.66 1.32 5 2 C7.01669827 3.13350534 7.01669827 3.13350534 9 4 C6.69 4 4.38 4 2 4 C1.34 2.68 0.68 1.36 0 0 Z " fill="#2F4D7A" transform="translate(417,303)"/>
<path d="M0 0 C2.31 0 4.62 0 7 0 C6.34 1.32 5.68 2.64 5 4 C2.525 3.01 2.525 3.01 0 2 C0 1.34 0 0.68 0 0 Z " fill="#C8DAEB" transform="translate(184,293)"/>
<path d="M0 0 C1.65 0 3.3 0 5 0 C4.67 1.32 4.34 2.64 4 4 C2.68 4 1.36 4 0 4 C0 2.68 0 1.36 0 0 Z " fill="#D5E8F4" transform="translate(78,293)"/>
<path d="M0 0 C2.475 0.99 2.475 0.99 5 2 C4.67 2.99 4.34 3.98 4 5 C1.03 4.505 1.03 4.505 -2 4 C-1.01 3.67 -0.02 3.34 1 3 C0.67 2.01 0.34 1.02 0 0 Z " fill="#3D5F8C" transform="translate(424,289)"/>
<path d="M0 0 C0.99 0.66 1.98 1.32 3 2 C-0.3 2 -3.6 2 -7 2 C-7 1.34 -7 0.68 -7 0 C-3.8195064 -1.06016453 -3.04021693 -1.04507457 0 0 Z " fill="#A10807" transform="translate(274,255)"/>
<path d="M0 0 C1.80806372 2.71209558 3.06810009 4.89366697 4 8 C3.01 9.485 3.01 9.485 2 11 C0.80712589 7.12315913 0 4.08378077 0 0 Z " fill="#0A3775" transform="translate(107,250)"/>
<path d="M0 0 C0.91058531 3.07322544 1.08886184 5.80097361 1 9 C0.01 8.67 -0.98 8.34 -2 8 C-2.6875 5.9375 -2.6875 5.9375 -3 4 C-2.34 3.67 -1.68 3.34 -1 3 C-0.67 2.01 -0.34 1.02 0 0 Z " fill="#9F1414" transform="translate(167,243)"/>
<path d="M0 0 C0.66 0 1.32 0 2 0 C2.33 1.65 2.66 3.3 3 5 C3.66 5 4.32 5 5 5 C4.67 6.32 4.34 7.64 4 9 C1.49701566 6.06171403 0.53069061 3.82097239 0 0 Z " fill="#FEEDE9" transform="translate(110,192)"/>
<path d="M0 0 C0.33 1.32 0.66 2.64 1 4 C0.360625 4.12375 -0.27875 4.2475 -0.9375 4.375 C-1.9584375 4.684375 -1.9584375 4.684375 -3 5 C-3.33 5.66 -3.66 6.32 -4 7 C-4.99 6.34 -5.98 5.68 -7 5 C-5.35 4.67 -3.7 4.34 -2 4 C-2 3.01 -2 2.02 -2 1 C-1.34 0.67 -0.68 0.34 0 0 Z " fill="#123C73" transform="translate(86,293)"/>
<path d="M0 0 C0.99 0 1.98 0 3 0 C3 0.99 3 1.98 3 3 C2.34 3 1.68 3 1 3 C1 5.97 1 8.94 1 12 C0.67 12 0.34 12 0 12 C0 8.04 0 4.08 0 0 Z " fill="#1C4174" transform="translate(394,289)"/>
<path d="M0 0 C2.475 0.99 2.475 0.99 5 2 C4.67 2.99 4.34 3.98 4 5 C1.03 4.505 1.03 4.505 -2 4 C-1.34 2.68 -0.68 1.36 0 0 Z " fill="#355A86" transform="translate(299,289)"/>
<path d="M0 0 C2 3.75 2 3.75 2 6 C2.99 6.33 3.98 6.66 5 7 C4.34 8.32 3.68 9.64 3 11 C2.30034557 9.73581754 1.61565237 8.46334598 0.9375 7.1875 C0.55464844 6.47980469 0.17179687 5.77210938 -0.22265625 5.04296875 C-1 3 -1 3 0 0 Z " fill="#A53737" transform="translate(352,245)"/>
<path d="M0 0 C0.33 0 0.66 0 1 0 C1.36923077 7.38461538 1.36923077 7.38461538 -0.5 10.5 C-0.995 10.995 -1.49 11.49 -2 12 C-2.33 10.68 -2.66 9.36 -3 8 C-2.34 8 -1.68 8 -1 8 C-0.67 5.36 -0.34 2.72 0 0 Z " fill="#A4393C" transform="translate(292,240)"/>
<path d="M0 0 C0.33 0 0.66 0 1 0 C0.25 6.625 0.25 6.625 -2 10 C-2 7.36 -2 4.72 -2 2 C-1.34 2 -0.68 2 0 2 C0 1.34 0 0.68 0 0 Z " fill="#980B0C" transform="translate(405,238)"/>
<path d="M0 0 C0.66 0.66 1.32 1.32 2 2 C1.34 3.98 0.68 5.96 0 8 C-0.99 7.67 -1.98 7.34 -3 7 C-2.25 2.25 -2.25 2.25 0 0 Z " fill="#AA090A" transform="translate(400,241)"/>
<path d="M0 0 C1 2 1 2 0.44140625 4.1640625 C0.15136719 4.97617188 -0.13867188 5.78828125 -0.4375 6.625 C-0.72496094 7.44226563 -1.01242188 8.25953125 -1.30859375 9.1015625 C-1.53675781 9.72804687 -1.76492187 10.35453125 -2 11 C-2.33 11 -2.66 11 -3 11 C-3.36923077 4.6 -3.36923077 4.6 -1.5 1.5625 C-1.005 1.046875 -0.51 0.53125 0 0 Z " fill="#851121" transform="translate(104,232)"/>
<path d="M0 0 C2.35953094 2.35953094 2.49141413 3.77895617 3 7 C1.68 7.33 0.36 7.66 -1 8 C-1.125 2.25 -1.125 2.25 0 0 Z " fill="#8C2323" transform="translate(159,166)"/>
<path d="M0 0 C2.5654594 2.5654594 2.54046087 4.47686668 3 8 C2.01 8 1.02 8 0 8 C0 5.36 0 2.72 0 0 Z " fill="#073976" transform="translate(311,297)"/>
<path d="M0 0 C0.99 0.33 1.98 0.66 3 1 C3 1.66 3 2.32 3 3 C2.01 3.33 1.02 3.66 0 4 C-0.33 4.66 -0.66 5.32 -1 6 C-1.66 6 -2.32 6 -3 6 C-1.125 1.125 -1.125 1.125 0 0 Z " fill="#0D3773" transform="translate(422,289)"/>
<path d="M0 0 C0.33 1.32 0.66 2.64 1 4 C-1.64 3.67 -4.28 3.34 -7 3 C-7 2.34 -7 1.68 -7 1 C-2.25 1.875 -2.25 1.875 0 3 C0 2.01 0 1.02 0 0 Z " fill="#3A5F92" transform="translate(414,289)"/>
<path d="M0 0 C2.5654594 2.5654594 2.54046087 4.47686668 3 8 C2.01 8 1.02 8 0 8 C0 5.36 0 2.72 0 0 Z " fill="#F8D6D3" transform="translate(412,248)"/>
<path d="M0 0 C0.33 0 0.66 0 1 0 C0.67 2.64 0.34 5.28 0 8 C-0.99 8.33 -1.98 8.66 -3 9 C-2.01 6.03 -1.02 3.06 0 0 Z " fill="#A63437" transform="translate(369,236)"/>
<path d="M0 0 C0.66 0 1.32 0 2 0 C2.33 1.65 2.66 3.3 3 5 C2.34 5 1.68 5 1 5 C0.67 5.66 0.34 6.32 0 7 C-0.66 7 -1.32 7 -2 7 C-1.34 4.69 -0.68 2.38 0 0 Z " fill="#F7C7C7" transform="translate(229,237)"/>
<path d="M0 0 C2 3 2 3 1.625 5.1875 C1.41875 5.785625 1.2125 6.38375 1 7 C0.01 7 -0.98 7 -2 7 C-1.34 4.69 -0.68 2.38 0 0 Z " fill="#9E1F21" transform="translate(84,212)"/>
</svg>
